<svg width="68" height="68" viewBox="0 0 68 68" fill="none" xmlns="http://www.w3.org/2000/svg">
<circle cx="34" cy="34" r="33" stroke="white" stroke-width="2"/>
<g clip-path="url(#clip0_41_852)">
<path d="M41.584 50C40.8443 49.9995 40.1095 49.8798 39.408 49.6454C34.5089 48.0043 30.0563 45.252 26.3986 41.6038C22.7494 37.948 19.9966 33.497 18.356 28.5997C17.9218 27.3107 17.8839 25.9213 18.247 24.6106C18.6102 23.2999 19.3577 22.1279 20.3933 21.2459L22.9266 19.0759C23.382 18.6856 23.9114 18.3909 24.4831 18.2095C25.0549 18.028 25.6573 17.9635 26.2545 18.0197C26.8517 18.0759 27.4315 18.2517 27.9593 18.5367C28.4871 18.8217 28.9521 19.2099 29.3266 19.6783L32.5413 23.6998C33.055 24.3444 33.3575 25.1315 33.4079 25.9541C33.4582 26.7766 33.2539 27.5948 32.8226 28.2971L31.356 30.6764C31.1982 30.9316 31.1313 31.2326 31.1659 31.5306C31.2005 31.8286 31.3346 32.1063 31.5466 32.3186L35.68 36.4507C35.8921 36.6625 36.1695 36.7967 36.4673 36.8315C36.7651 36.8663 37.066 36.7998 37.3213 36.6426L39.7026 35.1764C40.4049 34.7445 41.2234 34.5398 42.0464 34.5901C42.8694 34.6405 43.6569 34.9434 44.3013 35.4577L48.324 38.6754C48.7924 39.0499 49.1806 39.5148 49.4655 40.0425C49.7505 40.5701 49.9263 41.1497 49.9825 41.7466C50.0388 42.3436 49.9743 42.9458 49.7929 43.5174C49.6115 44.0889 49.3169 44.6181 48.9266 45.0735L46.756 47.606C46.1182 48.3551 45.3256 48.957 44.4327 49.3703C43.5398 49.7835 42.5679 49.9984 41.584 50ZM25.8333 20.6674C25.4038 20.6671 24.9884 20.8208 24.6626 21.1006L22.128 23.2706C21.4963 23.8086 21.0401 24.5233 20.8184 25.3227C20.5967 26.1221 20.6195 26.9696 20.884 27.7559C22.3943 32.261 24.927 36.3555 28.284 39.7191C31.649 43.0747 35.7452 45.6062 40.252 47.1155C41.0384 47.38 41.8861 47.4031 42.6857 47.1816C43.4854 46.9602 44.2004 46.5045 44.7386 45.8732L46.908 43.3406C47.0653 43.1571 47.1841 42.9437 47.2572 42.7132C47.3304 42.4828 47.3563 42.24 47.3335 41.9993C47.3108 41.7586 47.2397 41.5249 47.1247 41.3122C47.0097 41.0996 46.853 40.9122 46.664 40.7614L42.6413 37.5437C42.4265 37.372 42.1639 37.2708 41.8894 37.2541C41.6149 37.2374 41.342 37.306 41.108 37.4504L38.728 38.9166C37.9627 39.3919 37.0588 39.5937 36.164 39.4891C35.2692 39.3845 34.4363 38.9797 33.8013 38.3408L29.668 34.2087C29.0279 33.5731 28.6225 32.7392 28.5178 31.8434C28.4132 30.9476 28.6156 30.0428 29.092 29.2768L30.5586 26.8975C30.7031 26.6636 30.7717 26.3907 30.755 26.1163C30.7383 25.8419 30.6371 25.5793 30.4653 25.3647L27.2413 21.3445C27.0729 21.1328 26.8588 20.9619 26.6149 20.8446C26.3711 20.7273 26.1039 20.6667 25.8333 20.6674Z" fill="white"/>
</g>
<defs>
<clipPath id="clip0_41_852">
<rect width="32" height="32" fill="white" transform="translate(18 18)"/>
</clipPath>
</defs>
</svg>
