<svg width="123" height="72" viewBox="0 0 123 72" fill="none" xmlns="http://www.w3.org/2000/svg">
<path fill-rule="evenodd" clip-rule="evenodd" d="M61.62 0L43 6.64L45.84 31.26L61.62 40L77.4 31.26L80.24 6.64L61.62 0ZM49.98 30.52L61.62 4.42L73.22 30.52H68.88L66.54 24.68H56.66L54.32 30.52H49.98ZM61.62 12.9L58.22 21.08H65.02L61.62 12.9Z" fill="#6C757D"/>
<path d="M34.1033 67L32.4233 63.26H24.6233L22.9433 67H21.4033L27.8033 53H29.2633L35.6633 67H34.1033ZM25.1633 62.06H31.8833L28.5233 54.54L25.1633 62.06ZM43.0392 56.4C45.5992 56.4 47.3592 57.88 47.3592 60.9V67H45.9392V61.04C45.9392 58.82 44.7792 57.68 42.7792 57.68C40.5192 57.68 39.0992 59.08 39.0992 61.48V67H37.6792V56.48H39.0392V58.42C39.7992 57.14 41.2192 56.4 43.0392 56.4ZM59.6334 56.48H60.9934V65.72C60.9934 69.34 59.2134 70.98 55.7334 70.98C53.8134 70.98 51.9334 70.4 50.8334 69.36L51.5534 68.28C52.5534 69.18 54.0734 69.72 55.6934 69.72C58.3534 69.72 59.5734 68.5 59.5734 65.9V64.56C58.6934 65.9 57.1934 66.6 55.4734 66.6C52.4734 66.6 50.1934 64.5 50.1934 61.48C50.1934 58.46 52.4734 56.4 55.4734 56.4C57.2334 56.4 58.7534 57.12 59.6334 58.5V56.48ZM55.6134 65.34C57.9334 65.34 59.6134 63.76 59.6134 61.48C59.6134 59.2 57.9334 57.64 55.6134 57.64C53.2934 57.64 51.6334 59.2 51.6334 61.48C51.6334 63.76 53.2934 65.34 55.6134 65.34ZM73.0244 56.48H74.4444V67H73.0844V65.08C72.3444 66.36 70.9844 67.1 69.3044 67.1C66.6244 67.1 64.8644 65.6 64.8644 62.58V56.48H66.2844V62.44C66.2844 64.68 67.4444 65.82 69.4444 65.82C71.6444 65.82 73.0244 64.4 73.0244 62V56.48ZM78.4214 67V52.16H79.8414V67H78.4214ZM87.4725 56.4C90.1925 56.4 91.7325 57.76 91.7325 60.48V67H90.3725V65.36C89.7325 66.44 88.4925 67.1 86.7525 67.1C84.3725 67.1 82.9125 65.86 82.9125 64.04C82.9125 62.42 83.9525 61.06 86.9725 61.06H90.3125V60.42C90.3125 58.62 89.2925 57.64 87.3325 57.64C85.9725 57.64 84.6925 58.12 83.8325 58.88L83.1925 57.82C84.2525 56.92 85.8125 56.4 87.4725 56.4ZM86.9725 65.98C88.5725 65.98 89.7525 65.22 90.3125 63.84V62.12H87.0125C84.9725 62.12 84.3125 62.92 84.3125 64C84.3125 65.22 85.2925 65.98 86.9725 65.98ZM96.9494 58.54C97.6094 57.14 98.9494 56.4 100.889 56.4V57.78C100.769 57.78 100.649 57.76 100.549 57.76C98.3494 57.76 97.0094 59.16 97.0094 61.64V67H95.5894V56.48H96.9494V58.54Z" fill="#6C757D"/>
</svg>
