<svg width="123" height="72" viewBox="0 0 123 72" fill="none" xmlns="http://www.w3.org/2000/svg">
<g clip-path="url(#clip0_32_567)">
<path d="M64.5839 24.9638C64.6484 25.2869 64.6808 25.8521 64.6808 26.6597V32.9876H62.9365V26.7275C62.9365 26.0168 62.8687 25.4858 62.733 25.1335C62.5973 24.7813 62.3567 24.5003 62.0111 24.2903C61.6655 24.0807 61.2601 23.9754 60.7949 23.9754C60.052 23.9754 59.4108 24.2113 58.8713 24.6828C58.3319 25.1545 58.0622 26.0492 58.0622 27.3671V32.9876H56.3179V22.6963H57.8877V24.1595C58.6436 23.0289 59.7354 22.4637 61.1631 22.4637C61.7833 22.4637 62.3534 22.5751 62.8735 22.798C63.3936 23.0209 63.7829 23.3132 64.0413 23.675C64.2996 24.0368 64.4805 24.4664 64.5839 24.9638ZM81.4609 33.051C80.97 33.1543 80.5306 33.206 80.143 33.206C79.5099 33.206 79.0189 33.1059 78.6701 32.9056C78.3213 32.7053 78.0758 32.442 77.9336 32.1158C77.7915 31.7899 77.7204 31.1031 77.7204 30.0566V23.8424H73.9333C73.942 23.8517 73.9516 23.8595 73.9604 23.8688C74.8326 24.8056 75.2687 26.1235 75.2687 27.8226C75.2687 27.9259 75.2654 28.081 75.259 28.2877H67.5841C67.6487 29.4183 67.9684 30.284 68.5434 30.8848C69.1184 31.4856 69.8355 31.786 70.6947 31.786C71.3343 31.786 71.8802 31.6181 72.3324 31.2821C72.7846 30.9461 73.1432 30.4099 73.4081 29.6735L75.2105 29.8963C74.9263 30.9494 74.3998 31.7666 73.6309 32.3481C72.8621 32.9296 71.8802 33.2203 70.685 33.2203C69.1797 33.2203 67.9862 32.7567 67.1044 31.8296C66.2225 30.9029 65.7816 29.6024 65.7816 27.9292C65.7816 26.1978 66.2273 24.854 67.1188 23.8978C68.0104 22.9417 69.1668 22.4637 70.588 22.4637C70.7598 22.4637 70.9282 22.4711 71.0923 22.4856H77.7203V20.2529H79.4549V22.4856H81.2089V23.8423H79.4549V30.1534C79.4549 30.6508 79.4856 30.9706 79.547 31.1128C79.6084 31.2549 79.7084 31.368 79.8474 31.4519C79.9862 31.5359 80.1849 31.5779 80.4434 31.5779C80.6372 31.5779 80.8923 31.5553 81.209 31.51L81.4609 33.051ZM73.4275 26.8535C73.3499 25.9878 73.1302 25.3385 72.7685 24.9057C72.2129 24.2338 71.4926 23.8979 70.6075 23.8979C69.8064 23.8979 69.1329 24.166 68.587 24.7022C68.0412 25.2385 67.7391 25.9556 67.6809 26.8535H73.4275ZM53.8345 30.8922C53.5192 30.8922 53.2517 31.0043 53.0314 31.2324C52.8111 31.4588 52.702 31.7328 52.702 32.0564C52.702 32.3717 52.8111 32.6446 53.0314 32.8746C53.2517 33.1046 53.5192 33.2203 53.8345 33.2203C54.1578 33.2203 54.433 33.1047 54.6595 32.8746C54.8865 32.6447 54.9993 32.3717 54.9993 32.0564C54.9993 31.7405 54.8866 31.4666 54.6595 31.237C54.433 31.0059 54.1578 30.8922 53.8345 30.8922ZM65.0193 20.8747C64.1148 21.2721 62.9746 21.4707 61.5986 21.4707C59.1823 21.4707 57.5091 21.0056 56.5788 20.0753C56.5749 20.0713 56.5713 20.0672 56.5674 20.0634L57.0052 21.2285H52.4084L51.6973 18.8833H46.7138L46.0213 21.2285H41.5391L46.8786 7.02213H51.667L55.2337 16.5138L59.1759 16.2669C59.2664 16.9453 59.4505 17.4622 59.7283 17.8174C60.1805 18.3925 60.8266 18.6799 61.6664 18.6799C62.293 18.6799 62.776 18.5331 63.1152 18.2389C63.4544 17.9449 63.624 17.6042 63.624 17.2166C63.624 16.8483 63.4625 16.5188 63.1395 16.2281C62.8164 15.9374 62.067 15.6629 60.8912 15.4044C58.9661 14.9717 57.5933 14.3967 56.7728 13.6796C55.9459 12.9624 55.5324 12.0483 55.5324 10.9371C55.5324 10.2071 55.744 9.51736 56.1672 8.86814C56.5903 8.21885 57.2267 7.70869 58.0763 7.33705C58.9258 6.96557 60.0902 6.77979 61.5697 6.77979C63.3851 6.77979 64.7692 7.11752 65.7221 7.79244C66.675 8.4676 67.2419 9.54166 67.4228 11.0146L63.2849 11.2569C63.1752 10.6173 62.9441 10.1521 62.592 9.86143C62.24 9.57072 61.7538 9.42541 61.1337 9.42541C60.6233 9.42541 60.2389 9.53361 59.9805 9.75002C59.722 9.9665 59.5929 10.2297 59.5929 10.5397C59.5929 10.766 59.6995 10.9696 59.9127 11.1502C60.1194 11.3377 60.6104 11.5121 61.3856 11.6735C63.3044 12.087 64.6787 12.5054 65.5089 12.9284C66.3391 13.3515 66.9431 13.8766 67.321 14.5031C67.5147 14.8241 67.6579 15.1649 67.7523 15.5249V7.02213H75.0493C76.6385 7.02213 77.8288 7.40002 78.6202 8.15588C79.4116 8.91182 79.8073 9.98736 79.8073 11.3829C79.8073 12.8171 79.376 13.938 78.5136 14.7455C77.6511 15.5532 76.3348 15.9568 74.5647 15.9568H72.1614V21.2285H67.7522V17.7232C67.6292 18.2143 67.4228 18.6819 67.132 19.1257C66.628 19.8945 65.9237 20.4774 65.0193 20.8747ZM72.1612 13.0787H73.237C74.0832 13.0787 74.6776 12.9318 75.02 12.6377C75.3624 12.3438 75.5335 11.9676 75.5335 11.5088C75.5335 11.063 75.385 10.6851 75.0878 10.3749C74.7906 10.0649 74.2318 9.90979 73.4113 9.90979H72.1612V13.0787ZM50.7868 15.8114L49.2188 10.7046L47.667 15.8114H50.7868Z" fill="#6C757D"/>
</g>
<path d="M31.3494 67L29.6694 63.26H21.8694L20.1894 67H18.6494L25.0494 53H26.5094L32.9094 67H31.3494ZM22.4094 62.06H29.1294L25.7694 54.54L22.4094 62.06ZM39.0853 67.12C36.9853 67.12 34.9253 66.38 33.8853 65.3L34.4653 64.16C35.4653 65.14 37.2453 65.86 39.0853 65.86C41.7053 65.86 42.8453 64.76 42.8453 63.38C42.8453 59.54 34.2253 61.9 34.2253 56.72C34.2253 54.66 35.8253 52.88 39.3853 52.88C40.9653 52.88 42.6053 53.34 43.7253 54.12L43.2253 55.3C42.0253 54.52 40.6253 54.14 39.3853 54.14C36.8253 54.14 35.6853 55.28 35.6853 56.68C35.6853 60.52 44.3053 58.2 44.3053 63.3C44.3053 65.36 42.6653 67.12 39.0853 67.12ZM52.77 53C56.33 53 58.49 54.8 58.49 57.8C58.49 60.78 56.33 62.58 52.77 62.58H49.01V67H47.53V53H52.77ZM52.73 61.28C55.53 61.28 57.01 60 57.01 57.8C57.01 55.56 55.53 54.28 52.73 54.28H49.01V61.28H52.73ZM61.1395 67.1C60.5595 67.1 60.0795 66.62 60.0795 66C60.0795 65.38 60.5595 64.92 61.1395 64.92C61.7195 64.92 62.2195 65.38 62.2195 66C62.2195 66.62 61.7195 67.1 61.1395 67.1ZM75.7778 53H77.2378V67H76.0178L67.0178 55.64V67H65.5378V53H66.7578L75.7778 64.36V53ZM83.2873 65.72H91.7073V67H81.8073V53H91.4073V54.28H83.2873V59.26H90.5273V60.52H83.2873V65.72ZM97.9062 67V54.28H92.9863V53H104.306V54.28H99.3863V67H97.9062Z" fill="#6C757D"/>
<defs>
<clipPath id="clip0_32_567">
<rect width="40" height="40" fill="white" transform="translate(41.5)"/>
</clipPath>
</defs>
</svg>
