<svg width="123" height="72" viewBox="0 0 123 72" fill="none" xmlns="http://www.w3.org/2000/svg">
<path fill-rule="evenodd" clip-rule="evenodd" d="M79.0581 9.98304C79.334 10.4612 79.4791 11.0135 79.4964 11.6348C79.4976 11.6762 79.4981 11.718 79.4982 11.76C79.5 17.2543 79.5 28.2396 79.5 28.2396C79.5 28.8975 79.3601 29.4803 79.0793 29.9827C79.0431 30.0473 79.0046 30.1105 78.9638 30.1724C78.6779 30.6057 78.2769 30.9738 77.7572 31.2711L77.0016 31.7016C75.4904 32.5626 73.9788 33.4229 72.4671 34.283L71.7106 34.7135L71.7031 34.7178C68.9263 36.2977 66.1497 37.8776 63.3752 39.4613C63.2944 39.5074 63.2139 39.5505 63.1334 39.5907C61.9265 40.1927 60.7506 40.1253 59.5482 39.4239C59.4042 39.3399 59.2166 39.2314 58.9916 39.1019C57.7542 38.3896 55.3854 37.0416 52.9128 35.6361L50.8874 34.4851C48.5485 33.156 46.3699 31.9181 45.2429 31.2727C45.2058 31.2515 45.1693 31.2299 45.1334 31.2079C44.6448 30.9092 44.2681 30.5442 44 30.1175C43.9725 30.0737 43.9461 30.0292 43.9209 29.9841L43.9209 29.9841C43.6396 29.4817 43.5 28.8989 43.5 28.2411C43.5009 25.494 43.5009 22.7469 43.5009 19.9999C43.5009 17.2528 43.5009 14.5058 43.5018 11.7588C43.5021 10.4245 44.0724 9.39791 45.2445 8.72714C46.3748 8.07993 48.5625 6.83655 50.9091 5.50294L50.9117 5.50142L50.9125 5.50099C54.4735 3.47715 58.3991 1.24612 59.5487 0.575852C60.8308 -0.171922 62.0831 -0.198797 63.3748 0.538394C66.1119 2.10072 68.8509 3.65941 71.59 5.2181L71.5919 5.21916C73.6468 6.38849 75.7016 7.55781 77.7556 8.72868C78.3363 9.06107 78.7691 9.48146 79.0581 9.98304ZM61.5938 6.77118C66.544 6.77118 70.8659 9.42895 73.1808 13.3794L73.1582 13.3414L67.334 16.6567C66.1865 14.736 64.0829 13.4398 61.6698 13.4131L61.5938 13.4126C57.9139 13.4126 54.9305 16.3619 54.9305 19.9999C54.9305 21.1896 55.2513 22.3048 55.8093 23.268C56.9578 25.2503 59.117 26.5873 61.5938 26.5873C64.0659 26.5873 66.2225 25.2549 67.3723 23.2779L73.1877 26.6085C70.8982 30.5255 66.6355 33.1751 61.7428 33.2279L61.5938 33.2287C56.628 33.2287 52.2938 30.5546 49.9847 26.5832C48.8575 24.6444 48.2125 22.3967 48.2125 19.9999C48.2125 12.694 54.2034 6.77118 61.5938 6.77118ZM67.3723 23.2779L67.3723 23.2779L67.4 23.2298L67.3723 23.2779ZM71.9375 16.194V18.0702H73.8354V16.194H74.7843V18.0702H76.6821V19.0083H74.7843V20.8845H76.6821V21.8226H74.7843V23.6988H73.8354V21.8226H71.9375V23.6988H70.9886V21.8226H69.0908V20.8845H70.9886V19.0083H69.0908V18.0702H70.9886V16.194H71.9375ZM73.8354 19.0083H71.9375V20.8845H73.8354V19.0083Z" fill="#6C757D"/>
<path d="M55.7096 67.12C51.5096 67.12 48.3896 64.1 48.3896 60C48.3896 55.9 51.5096 52.88 55.7296 52.88C57.7696 52.88 59.6096 53.56 60.8496 54.92L59.9096 55.86C58.7696 54.7 57.3696 54.2 55.7696 54.2C52.3896 54.2 49.8496 56.68 49.8496 60C49.8496 63.32 52.3896 65.8 55.7696 65.8C57.3696 65.8 58.7696 65.3 59.9096 64.12L60.8496 65.06C59.6096 66.42 57.7696 67.12 55.7096 67.12ZM75.0446 57.9H72.0846L71.5646 62.1H74.4046V63.2H71.4246L70.9646 67H69.8846L70.3446 63.2H66.2446L65.7646 67H64.6846L65.1446 63.2H62.3046V62.1H65.2846L65.8046 57.9H62.9446V56.8H65.9446L66.4046 53H67.5046L67.0246 56.8H71.1446L71.6046 53H72.6846L72.2246 56.8H75.0446V57.9ZM70.4846 62.1L71.0046 57.9H66.9046L66.3646 62.1H70.4846Z" fill="#6C757D"/>
</svg>
