<svg width="68" height="68" viewBox="0 0 68 68" fill="none" xmlns="http://www.w3.org/2000/svg">
<circle cx="34" cy="34" r="33" stroke="white" stroke-width="2"/>
<path d="M47 46H21C19.34 46 18 44.66 18 43V25C18 23.34 19.34 22 21 22H47C48.66 22 50 23.34 50 25V43C50 44.66 48.66 46 47 46ZM21 24C20.44 24 20 24.44 20 25V43C20 43.56 20.44 44 21 44H47C47.56 44 48 43.56 48 43V25C48 24.44 47.56 24 47 24H21Z" fill="white"/>
<path d="M34 37.92C32.6 37.92 31.32 37.36 30.36 36.34L19.86 25.18C19.48 24.78 19.5 24.14 19.9 23.76C20.3 23.38 20.94 23.4 21.32 23.8L31.82 34.96C32.96 36.18 35.04 36.18 36.18 34.96L46.68 23.82C47.06 23.42 47.7 23.4 48.1 23.78C48.5 24.16 48.52 24.8 48.14 25.2L37.64 36.36C36.68 37.38 35.4 37.94 34 37.94V37.92Z" fill="white"/>
</svg>
