<svg width="68" height="68" viewBox="0 0 68 68" fill="none" xmlns="http://www.w3.org/2000/svg">
<circle cx="34" cy="34" r="33" stroke="white" stroke-width="2"/>
<path d="M34 18C26.009 18 19 24.542 19 32C19 38.081 22.898 43.018 29 44.771V49C29.0008 49.265 29.1064 49.5189 29.2938 49.7062C29.4811 49.8936 29.735 49.9992 30 50C30.153 50 30.306 49.965 30.447 49.895L40.514 44.858C46.383 41.336 49 37.371 49 32C49 24.542 41.991 18 34 18ZM39.553 43.105L31 47.382V44C31 43.7748 30.9239 43.5562 30.7842 43.3796C30.6444 43.203 30.4492 43.0788 30.23 43.027C24.623 41.7 21 37.372 21 32C21 25.607 27.075 20 34 20C40.925 20 47 25.607 47 32C47 36.65 44.752 39.982 39.553 43.105Z" fill="white"/>
<path d="M36 31.697L33.832 28.445C33.7129 28.2664 33.5396 28.1309 33.3375 28.0584C33.1355 27.986 32.9155 27.9805 32.7101 28.0427C32.5046 28.1049 32.3247 28.2316 32.1968 28.404C32.069 28.5764 32 28.7853 32 29V36H34V32.303L36.168 35.555C36.2871 35.7336 36.4604 35.8691 36.6625 35.9415C36.8645 36.014 37.0845 36.0195 37.2899 35.9573C37.4954 35.895 37.6753 35.7683 37.8032 35.596C37.931 35.4236 38 35.2146 38 35V28H36V31.697ZM44 30V28H40C39.7348 28 39.4804 28.1053 39.2929 28.2929C39.1054 28.4804 39 28.7348 39 29V35C39 35.2652 39.1054 35.5196 39.2929 35.7071C39.4804 35.8946 39.7348 36 40 36H44V34H41V33H44V31H41V30H44ZM26 28H24V35C24 35.2652 24.1054 35.5196 24.2929 35.7071C24.4804 35.8946 24.7348 36 25 36H28V34H26V28ZM29 28H31V36H29V28Z" fill="white"/>
<path d="M36 31.6972L33.832 28.4452C33.7129 28.2666 33.5396 28.1311 33.3375 28.0587C33.1355 27.9862 32.9155 27.9807 32.7101 28.043C32.5046 28.1052 32.3247 28.2319 32.1968 28.4042C32.069 28.5766 32 28.7856 32 29.0002V36.0002H34V32.3032L36.168 35.5552C36.2871 35.7338 36.4604 35.8693 36.6625 35.9418C36.8645 36.0142 37.0845 36.0197 37.2899 35.9575C37.4954 35.8953 37.6753 35.7686 37.8032 35.5962C37.931 35.4238 38 35.2149 38 35.0002V28.0002H36V31.6972ZM44 30.0002V28.0002H40C39.7348 28.0002 39.4804 28.1056 39.2929 28.2931C39.1054 28.4807 39 28.735 39 29.0002V35.0002C39 35.2654 39.1054 35.5198 39.2929 35.7073C39.4804 35.8949 39.7348 36.0002 40 36.0002H44V34.0002H41V33.0002H44V31.0002H41V30.0002H44ZM26 28.0002H24V35.0002C24 35.2654 24.1054 35.5198 24.2929 35.7073C24.4804 35.8949 24.7348 36.0002 25 36.0002H28V34.0002H26V28.0002ZM29 28.0002H31V36.0002H29V28.0002Z" fill="white"/>
</svg>
