<svg width="68" height="68" viewBox="0 0 68 68" fill="none" xmlns="http://www.w3.org/2000/svg">
<circle cx="34" cy="34" r="33" stroke="white" stroke-width="2"/>
<path d="M18 22.4848C18 21.4747 18.3604 20.6414 19.0811 19.9848C19.8018 19.3283 20.7387 19 21.8919 19C23.0245 19 23.9408 19.3232 24.6409 19.9697C25.3616 20.6364 25.722 21.505 25.722 22.5758C25.722 23.5455 25.372 24.3535 24.6718 25C23.9511 25.6667 23.0039 26 21.8301 26H21.7992C20.6667 26 19.7503 25.6667 19.0502 25C18.3501 24.3333 18 23.4949 18 22.4848ZM18.4015 49V28.7576H25.2587V49H18.4015ZM29.0579 49H35.9151V37.697C35.9151 36.9899 35.9974 36.4444 36.1622 36.0606C36.4504 35.3737 36.888 34.7929 37.4749 34.3182C38.0618 33.8434 38.7979 33.6061 39.6834 33.6061C41.9897 33.6061 43.1429 35.1313 43.1429 38.1818V49H50V37.3939C50 34.404 49.2793 32.1364 47.8378 30.5909C46.3964 29.0455 44.4916 28.2727 42.1236 28.2727C39.4672 28.2727 37.3977 29.3939 35.9151 31.6364V31.697H35.8842L35.9151 31.6364V28.7576H29.0579C29.0991 29.404 29.1197 31.4141 29.1197 34.7879C29.1197 38.1616 29.0991 42.899 29.0579 49Z" fill="white"/>
</svg>
