<svg width="21" height="20" viewBox="0 0 21 20" fill="none" xmlns="http://www.w3.org/2000/svg">
<path fill-rule="evenodd" clip-rule="evenodd" d="M19.5035 8C20.0558 8 20.5035 7.55228 20.5035 7V1C20.5035 0.44772 20.0558 0 19.5035 0H13.4999C12.9476 0 12.4999 0.44771 12.4999 1C12.4999 1.55228 12.9476 2 13.4999 2H17.0895L8.48283 10.6066C8.09231 10.9971 8.09231 11.6303 8.48283 12.0208C8.8734 12.4114 9.5065 12.4114 9.897 12.0208L18.5035 3.41437V7C18.5035 7.55228 18.9512 8 19.5035 8ZM3.5 3C1.84315 3 0.5 4.34315 0.5 6V17C0.5 18.6569 1.84315 20 3.5 20H14.5C16.1569 20 17.5 18.6569 17.5 17V11C17.5 10.4477 17.0523 10 16.5 10C15.9477 10 15.5 10.4477 15.5 11V17C15.5 17.5523 15.0523 18 14.5 18H3.5C2.94772 18 2.5 17.5523 2.5 17V6C2.5 5.44772 2.94772 5 3.5 5H9.5C10.0523 5 10.5 4.55228 10.5 4C10.5 3.44772 10.0523 3 9.5 3H3.5Z" fill="white"/>
</svg>
