<svg width="123" height="72" viewBox="0 0 123 72" fill="none" xmlns="http://www.w3.org/2000/svg">
<g clip-path="url(#clip0_32_297)">
<path fill-rule="evenodd" clip-rule="evenodd" d="M41.5 0H81.5V40H41.5V0ZM72.0778 33.5327C70.2238 33.5327 69.1756 32.5657 68.3698 31.2502L65.3152 33.0248C66.4187 35.2051 68.674 36.8686 72.1648 36.8686C75.7349 36.8686 78.3933 35.0146 78.3933 31.6305C78.3933 28.4914 76.5902 27.0952 73.3965 25.7257L72.4568 25.3232C70.8441 24.6248 70.1457 24.1683 70.1457 23.0406C70.1457 22.1283 70.8435 21.4298 71.9444 21.4298C73.0238 21.4298 73.719 21.8851 74.3635 23.0406L77.2905 21.1613C76.0524 18.9835 74.3343 18.1517 71.9444 18.1517C68.5876 18.1517 66.4397 20.2978 66.4397 23.1168C66.4397 26.1771 68.2416 27.6248 70.954 28.7803L71.8937 29.1835C73.6079 29.9333 74.6302 30.3898 74.6302 31.6787C74.6302 32.7543 73.6352 33.5327 72.0778 33.5327ZM57.5108 33.5092C56.2194 33.5092 55.6822 32.6235 55.0917 31.5759L52.0321 33.4282C52.9184 35.3041 54.6613 36.8616 57.6708 36.8616C61.0016 36.8616 63.2835 35.0902 63.2835 31.1981V18.3663H59.5248V31.1473C59.5248 33.026 58.7457 33.5092 57.5108 33.5092Z" fill="#6C757D"/>
</g>
<path d="M15.3191 67.12C13.7391 67.12 12.2991 66.4 11.4391 65.12L12.3191 64.12C13.0791 65.24 14.0991 65.84 15.3391 65.84C17.0591 65.84 17.9391 64.82 17.9391 62.76V54.28H12.8191V53H19.3991V62.7C19.3991 65.66 17.9991 67.12 15.3191 67.12ZM27.2186 56.4C29.9386 56.4 31.4786 57.76 31.4786 60.48V67H30.1186V65.36C29.4786 66.44 28.2386 67.1 26.4986 67.1C24.1186 67.1 22.6586 65.86 22.6586 64.04C22.6586 62.42 23.6986 61.06 26.7186 61.06H30.0586V60.42C30.0586 58.62 29.0386 57.64 27.0786 57.64C25.7186 57.64 24.4386 58.12 23.5786 58.88L22.9386 57.82C23.9986 56.92 25.5586 56.4 27.2186 56.4ZM26.7186 65.98C28.3186 65.98 29.4986 65.22 30.0586 63.84V62.12H26.7586C24.7186 62.12 24.0586 62.92 24.0586 64C24.0586 65.22 25.0386 65.98 26.7186 65.98ZM42.5802 56.48H43.9802L39.3002 67H37.8402L33.1802 56.48H34.6602L38.6002 65.44L42.5802 56.48ZM49.3475 56.4C52.0675 56.4 53.6075 57.76 53.6075 60.48V67H52.2475V65.36C51.6075 66.44 50.3675 67.1 48.6275 67.1C46.2475 67.1 44.7875 65.86 44.7875 64.04C44.7875 62.42 45.8275 61.06 48.8475 61.06H52.1875V60.42C52.1875 58.62 51.1675 57.64 49.2075 57.64C47.8475 57.64 46.5675 58.12 45.7075 58.88L45.0675 57.82C46.1275 56.92 47.6875 56.4 49.3475 56.4ZM48.8475 65.98C50.4475 65.98 51.6275 65.22 52.1875 63.84V62.12H48.8875C46.8475 62.12 46.1875 62.92 46.1875 64C46.1875 65.22 47.1675 65.98 48.8475 65.98ZM60.2844 67.1C58.5444 67.1 56.8644 66.54 56.0044 65.8L56.6444 64.68C57.4844 65.34 58.9044 65.86 60.3844 65.86C62.3844 65.86 63.2044 65.18 63.2044 64.14C63.2044 61.4 56.3844 63.56 56.3844 59.4C56.3844 57.68 57.8644 56.4 60.5444 56.4C61.9044 56.4 63.3844 56.78 64.2644 57.38L63.6444 58.52C62.7244 57.88 61.6244 57.62 60.5444 57.62C58.6444 57.62 57.8044 58.36 57.8044 59.36C57.8044 62.2 64.6244 60.06 64.6244 64.1C64.6244 65.92 63.0244 67.1 60.2844 67.1ZM71.6095 67.1C68.4695 67.1 66.1895 64.88 66.1895 61.74C66.1895 58.6 68.4695 56.4 71.6095 56.4C73.3895 56.4 74.8895 57.1 75.7295 58.48L74.6695 59.2C73.9495 58.14 72.8295 57.64 71.6095 57.64C69.3095 57.64 67.6295 59.28 67.6295 61.74C67.6295 64.22 69.3095 65.84 71.6095 65.84C72.8295 65.84 73.9495 65.36 74.6695 64.3L75.7295 65.02C74.8895 66.38 73.3895 67.1 71.6095 67.1ZM79.8791 58.54C80.5391 57.14 81.8791 56.4 83.8191 56.4V57.78C83.6991 57.78 83.5791 57.76 83.4791 57.76C81.2791 57.76 79.9391 59.16 79.9391 61.64V67H78.5191V56.48H79.8791V58.54ZM87.1102 54.18C86.5302 54.18 86.0702 53.72 86.0702 53.16C86.0702 52.62 86.5302 52.16 87.1102 52.16C87.6902 52.16 88.1502 52.6 88.1502 53.14C88.1502 53.72 87.7102 54.18 87.1102 54.18ZM86.3902 67V56.48H87.8102V67H86.3902ZM97.1813 56.4C100.181 56.4 102.421 58.56 102.421 61.74C102.421 64.94 100.181 67.1 97.1813 67.1C95.5013 67.1 94.0613 66.38 93.1813 65.02V70.88H91.7613V56.48H93.1213V58.56C93.9813 57.16 95.4413 56.4 97.1813 56.4ZM97.0813 65.84C99.3013 65.84 101.001 64.2 101.001 61.74C101.001 59.3 99.3013 57.64 97.0813 57.64C94.8413 57.64 93.1613 59.3 93.1613 61.74C93.1613 64.2 94.8413 65.84 97.0813 65.84ZM110.356 65.34L110.856 66.36C110.296 66.86 109.456 67.1 108.636 67.1C106.656 67.1 105.556 65.98 105.556 64.04V57.68H103.676V56.48H105.556V54.18H106.976V56.48H110.176V57.68H106.976V63.96C106.976 65.2 107.616 65.88 108.796 65.88C109.376 65.88 109.956 65.7 110.356 65.34Z" fill="#6C757D"/>
<defs>
<clipPath id="clip0_32_297">
<rect width="40" height="40" fill="white" transform="translate(41.5)"/>
</clipPath>
</defs>
</svg>
