<svg width="202" height="71" viewBox="0 0 202 71" fill="none" xmlns="http://www.w3.org/2000/svg">
<!-- Icon circle -->
<circle cx="35" cy="35.5" r="26" fill="#6C757D"/>
<g stroke="white" stroke-width="1.1" stroke-linejoin="round" fill="none" transform="translate(3,3.5)">
  <polygon points="32,13 21,26 43,26"/>
  <polygon points="21,26 16,36 32,30"/>
  <polygon points="43,26 48,36 32,30"/>
  <polygon points="21,26 43,26 32,30"/>
  <polygon points="16,36 22,46 32,40"/>
  <polygon points="48,36 42,46 32,40"/>
  <polygon points="16,36 48,36 32,40"/>
  <polygon points="22,46 32,52 32,40"/>
  <polygon points="42,46 32,52 32,40"/>
  <polygon points="22,46 42,46 32,40"/>
</g>
<!-- Company name -->
<text x="70" y="32" font-family="Arial, Helvetica, sans-serif" font-size="20" font-weight="700" fill="#333333" letter-spacing="0.5">Bedrock</text>
<text x="70" y="50" font-family="Arial, Helvetica, sans-serif" font-size="13" font-weight="400" fill="#666666" letter-spacing="1.5">Analytics</text>
</svg>
