<svg width="25" height="24" viewBox="0 0 25 24" fill="none" xmlns="http://www.w3.org/2000/svg">
<path d="M19.1666 24H5.83332C4.40883 24 3.06952 23.4452 2.06212 22.4378C1.05477 21.4306 0.5 20.0912 0.5 18.6666V17.3332C0.5 16.5968 1.09692 15.9999 1.83334 15.9999C2.56976 15.9999 3.16668 16.5968 3.16668 17.3332V18.6666C3.16668 19.3789 3.44409 20.0486 3.94767 20.5522C4.4514 21.0559 5.12103 21.3333 5.83332 21.3333H19.1666C19.8789 21.3333 20.5485 21.0559 21.0522 20.5522C21.5559 20.0485 21.8333 19.3788 21.8333 18.6666V17.3332C21.8333 16.5968 22.4302 15.9999 23.1666 15.9999C23.903 15.9999 24.5 16.5968 24.5 17.3332V18.6666C24.5 20.0911 23.9452 21.4304 22.9378 22.4378C21.9304 23.4452 20.5911 24 19.1666 24ZM12.5 18.6666C12.3155 18.6666 12.1399 18.6291 11.9802 18.5615C11.8311 18.4985 11.6911 18.407 11.5685 18.2874C11.5685 18.2873 11.5685 18.2873 11.5684 18.2873C11.5676 18.2864 11.5667 18.2855 11.5658 18.2847C11.5656 18.2845 11.5653 18.2842 11.565 18.2839C11.5643 18.2833 11.5637 18.2826 11.563 18.2819C11.5625 18.2814 11.5621 18.281 11.5616 18.2805C11.5611 18.2801 11.5605 18.2794 11.5601 18.2791C11.5592 18.2781 11.5582 18.2771 11.5572 18.2762L6.22386 12.9428C5.70318 12.4221 5.70318 11.5779 6.22386 11.0571C6.74454 10.5365 7.58883 10.5364 8.1095 11.0571L11.1667 14.1143V1.33334C11.1666 0.596923 11.7636 0 12.5 0C13.2364 0 13.8334 0.596923 13.8334 1.33334V14.1143L16.8905 11.0571C17.4111 10.5365 18.2555 10.5365 18.7761 11.0571C19.2968 11.5778 19.2968 12.4221 18.7761 12.9428L13.4428 18.2761C13.4418 18.277 13.4408 18.278 13.4399 18.279C13.4394 18.2794 13.4388 18.2801 13.4384 18.2804C13.4379 18.2809 13.4375 18.2813 13.437 18.2818C13.4364 18.2825 13.4356 18.2832 13.435 18.2838C13.4348 18.2841 13.4344 18.2844 13.4342 18.2846C13.4334 18.2855 13.4325 18.2863 13.4316 18.2872C13.4316 18.2872 13.4316 18.2872 13.4315 18.2873C13.4168 18.3016 13.402 18.3154 13.3868 18.329C13.2751 18.4285 13.1508 18.5062 13.0193 18.5616C13.0188 18.5618 13.0185 18.562 13.018 18.5622C13.0175 18.5624 13.0171 18.5626 13.0166 18.5628C12.8576 18.6297 12.6832 18.6666 12.5 18.6666Z" fill="white"/>
</svg>
