<svg width="123" height="72" viewBox="0 0 123 72" fill="none" xmlns="http://www.w3.org/2000/svg">
<g clip-path="url(#clip0_32_498)">
<path fill-rule="evenodd" clip-rule="evenodd" d="M62.5295 35.216L62.3891 35.3243C62.2653 37.2541 61.9536 39.9917 61.9536 39.9917H60.7103C60.7103 39.9917 60.3998 37.2386 60.2749 35.3243L60.1357 35.2315C60.1357 35.2315 43.4539 22.8317 57.8656 4.45692C59.5443 2.46644 60.9899 0.443837 61.2862 0.0238487C61.3171 -0.00827507 61.3635 -0.00827507 61.3944 0.0238487C61.6895 0.443837 63.1351 2.46644 64.815 4.45692C79.2267 22.8317 62.5449 35.2315 62.5295 35.216ZM62.2808 33.987V33.956L61.379 13.9477C61.379 13.8858 61.2862 13.8858 61.2862 13.9477L60.3843 33.956V33.987C60.5866 34.313 61.3326 34.9519 61.3326 34.9519C61.3326 34.9519 62.0786 34.313 62.2808 33.987Z" fill="#6C757D"/>
</g>
<path d="M22.9496 53H24.1696V67H22.7496V55.8L17.2496 65.22H16.5496L11.0496 55.86V67H9.62961V53H10.8496L16.9296 63.38L22.9496 53ZM32.7312 67.1C29.6512 67.1 27.3712 64.86 27.3712 61.74C27.3712 58.62 29.6512 56.4 32.7312 56.4C35.8112 56.4 38.0712 58.62 38.0712 61.74C38.0712 64.86 35.8112 67.1 32.7312 67.1ZM32.7312 65.84C34.9712 65.84 36.6312 64.2 36.6312 61.74C36.6312 59.28 34.9712 57.64 32.7312 57.64C30.4912 57.64 28.8112 59.28 28.8112 61.74C28.8112 64.2 30.4912 65.84 32.7312 65.84ZM46.3302 56.4C48.8902 56.4 50.6502 57.88 50.6502 60.9V67H49.2302V61.04C49.2302 58.82 48.0702 57.68 46.0702 57.68C43.8102 57.68 42.3902 59.08 42.3902 61.48V67H40.9702V56.48H42.3302V58.42C43.0902 57.14 44.5102 56.4 46.3302 56.4ZM62.9245 56.48H64.2845V65.72C64.2845 69.34 62.5045 70.98 59.0245 70.98C57.1045 70.98 55.2245 70.4 54.1245 69.36L54.8445 68.28C55.8445 69.18 57.3645 69.72 58.9845 69.72C61.6445 69.72 62.8645 68.5 62.8645 65.9V64.56C61.9845 65.9 60.4845 66.6 58.7645 66.6C55.7645 66.6 53.4845 64.5 53.4845 61.48C53.4845 58.46 55.7645 56.4 58.7645 56.4C60.5245 56.4 62.0445 57.12 62.9245 58.5V56.48ZM58.9045 65.34C61.2245 65.34 62.9045 63.76 62.9045 61.48C62.9045 59.2 61.2245 57.64 58.9045 57.64C56.5845 57.64 54.9245 59.2 54.9245 61.48C54.9245 63.76 56.5845 65.34 58.9045 65.34ZM72.5554 67.1C69.4754 67.1 67.1954 64.86 67.1954 61.74C67.1954 58.62 69.4754 56.4 72.5554 56.4C75.6354 56.4 77.8954 58.62 77.8954 61.74C77.8954 64.86 75.6354 67.1 72.5554 67.1ZM72.5554 65.84C74.7954 65.84 76.4554 64.2 76.4554 61.74C76.4554 59.28 74.7954 57.64 72.5554 57.64C70.3154 57.64 68.6354 59.28 68.6354 61.74C68.6354 64.2 70.3154 65.84 72.5554 65.84ZM86.3288 67V53H92.0288C96.5088 53 99.5288 55.88 99.5288 60C99.5288 64.12 96.5088 67 92.0288 67H86.3288ZM87.8088 65.72H91.9488C95.6688 65.72 98.0688 63.36 98.0688 60C98.0688 56.64 95.6688 54.28 91.9488 54.28H87.8088V65.72ZM111.672 59.78C113.472 60.18 114.552 61.36 114.552 63.26C114.552 65.64 112.792 67 109.292 67H102.852V53H108.892C112.012 53 113.812 54.32 113.812 56.6C113.812 58.2 112.952 59.26 111.672 59.78ZM108.792 54.22H104.332V59.3H108.792C111.032 59.3 112.332 58.44 112.332 56.76C112.332 55.08 111.032 54.22 108.792 54.22ZM109.272 65.78C111.732 65.78 113.072 64.98 113.072 63.14C113.072 61.32 111.732 60.52 109.272 60.52H104.332V65.78H109.272Z" fill="#6C757D"/>
<defs>
<clipPath id="clip0_32_498">
<rect width="40" height="40" fill="white" transform="translate(41.5)"/>
</clipPath>
</defs>
</svg>
