<svg width="123" height="72" viewBox="0 0 123 72" fill="none" xmlns="http://www.w3.org/2000/svg">
<g clip-path="url(#clip0_32_491)">
<path d="M68.8438 9.45998C68.6488 9.45998 68.5188 9.48623 68.3875 9.51873V9.53873H68.4075C68.4988 9.70748 68.6488 9.83873 68.765 9.99498C68.8563 10.1712 68.9338 10.3525 69.0188 10.5287L69.045 10.5025C69.2013 10.3912 69.28 10.2162 69.28 9.94873C69.215 9.86998 69.2013 9.78623 69.1438 9.71373C69.0788 9.60248 68.935 9.54498 68.8438 9.45998ZM51.1163 31.4512H49.5738C49.5213 28.8475 49.365 26.3987 49.125 24.1012H49.1125L46.7625 31.4512H45.5838L43.2525 24.1012H43.2325C43.0638 26.3012 42.9525 28.7562 42.9075 31.4512H41.5013C41.5925 28.17 41.82 25.0975 42.185 22.2325H44.0988L46.325 29.0037H46.3375L48.5838 22.2325H50.4063C50.81 25.5925 51.0513 28.665 51.1225 31.4512H51.1163ZM57.8088 24.6487C57.1838 28.06 56.35 30.5412 55.3288 32.0837C54.5213 33.275 53.6425 33.8737 52.685 33.8737C52.4313 33.8737 52.1188 33.795 51.7413 33.6387V32.8187C51.93 32.845 52.145 32.8637 52.3863 32.8637C52.835 32.8637 53.1938 32.7337 53.4675 32.4925C53.7925 32.1925 53.9563 31.855 53.9563 31.4837C53.9563 31.2237 53.8325 30.7025 53.5725 29.9087L51.8863 24.6487H53.4038L54.615 28.5812C54.8888 29.48 55.0063 30.0987 54.9538 30.4562C55.6238 28.685 56.0863 26.745 56.3475 24.6487H57.8088ZM78.355 31.4512H73.9675V22.2325H75.445V30.3187H78.355V31.4512ZM72.8213 31.6737L71.1288 30.84C71.2788 30.7162 71.4213 30.58 71.5525 30.4237C72.275 29.5837 72.6338 28.3275 72.6338 26.6737C72.6338 23.62 71.4363 22.0975 69.04 22.0975C67.8675 22.0975 66.95 22.4812 66.2925 23.2562C65.5763 24.1025 65.2113 25.3525 65.2113 27C65.2113 28.6212 65.53 29.8062 66.1688 30.5675C66.755 31.245 67.6338 31.59 68.8125 31.59C69.2488 31.59 69.6525 31.5375 70.0175 31.4275L72.225 32.7162L72.83 31.675L72.8213 31.6737ZM67.3338 29.6025C66.9563 29.0037 66.7738 28.04 66.7738 26.7112C66.7738 24.3875 67.4775 23.2287 68.89 23.2287C69.6263 23.2287 70.1725 23.5087 70.5175 24.0625C70.8888 24.6675 71.0775 25.6187 71.0775 26.9337C71.0775 29.2712 70.3675 30.45 68.9613 30.45C68.2188 30.45 67.6788 30.17 67.3275 29.6162L67.3338 29.6025ZM64.5725 28.9C64.5725 29.6812 64.2863 30.3262 63.7063 30.82C63.1338 31.3212 62.3713 31.575 61.4013 31.575C60.4963 31.575 59.63 31.2887 58.7775 30.715L59.175 29.9212C59.9038 30.2862 60.5613 30.4687 61.1613 30.4687C61.715 30.4687 62.1513 30.345 62.4638 30.1037C62.7763 29.8562 62.965 29.5112 62.965 29.075C62.965 28.5275 62.5813 28.0587 61.8838 27.6687C61.2388 27.3112 59.9438 26.575 59.9438 26.575C59.24 26.0612 58.895 25.5137 58.895 24.6087C58.895 23.86 59.155 23.2612 59.6763 22.805C60.2038 22.3362 60.8738 22.1087 61.7075 22.1087C62.56 22.1087 63.3413 22.3362 64.045 22.7925L63.6875 23.5862C63.0888 23.3325 62.4963 23.2025 61.9163 23.2025C61.4413 23.2025 61.0763 23.32 60.8225 23.5475C60.5688 23.775 60.4125 24.0612 60.4125 24.42C60.4125 24.9675 60.8038 25.4362 61.5188 25.8387C62.1763 26.1962 63.4975 26.9525 63.4975 26.9525C64.22 27.46 64.5788 28.0075 64.5788 28.8987L64.5725 28.9ZM80.205 19.1412C79.3125 19.1212 78.6225 19.2125 78.0438 19.46C77.8813 19.525 77.6138 19.525 77.5875 19.7337C77.6788 19.825 77.6913 19.9687 77.77 20.0912C77.9063 20.3125 78.135 20.6125 78.35 20.7687C78.585 20.9512 78.8188 21.1337 79.06 21.29C79.4963 21.5575 79.985 21.7137 80.4138 21.98C80.655 22.1362 80.9025 22.3375 81.1425 22.5012C81.2663 22.5862 81.3438 22.7362 81.5 22.7875V22.755C81.4213 22.6575 81.4025 22.5137 81.3238 22.3975C81.2125 22.2862 81.1025 22.1887 80.9913 22.0787C80.6663 21.6425 80.2688 21.265 79.8325 20.9525C79.475 20.7112 78.6938 20.3725 78.55 19.9625L78.53 19.9362C78.7713 19.9162 79.0575 19.825 79.2913 19.76C79.6688 19.6625 80.02 19.6812 80.4113 19.5837C80.5875 19.5387 80.7625 19.4862 80.945 19.4275V19.33C80.7438 19.1287 80.5938 18.855 80.385 18.6662C79.8188 18.1775 79.1938 17.6962 78.5488 17.2987C78.1975 17.0712 77.755 16.9275 77.3838 16.7387C77.2538 16.6737 77.0263 16.6412 76.9538 16.53C76.7525 16.2825 76.635 15.9637 76.4913 15.67C76.1725 15.0575 75.86 14.3812 75.58 13.73C75.3788 13.2937 75.2613 12.8637 75.0138 12.46C73.8675 10.565 72.6175 9.41998 70.7038 8.29373C70.2938 8.05873 69.7988 7.96123 69.2775 7.83748C68.9975 7.82498 68.7238 7.80498 68.4438 7.79248C68.2613 7.71373 68.0863 7.50623 67.93 7.40123C67.2925 6.99748 65.6513 6.13123 65.1888 7.27748C64.8888 8.00623 65.6313 8.71623 65.8925 9.08123C66.0813 9.34123 66.3225 9.62873 66.4588 9.91498C66.5375 10.11 66.5563 10.3125 66.635 10.5137C66.8113 11.0025 66.98 11.5487 67.215 12.005C67.3388 12.24 67.4688 12.4862 67.625 12.695C67.7163 12.8187 67.8725 12.8712 67.905 13.0725C67.7488 13.3 67.7363 13.6325 67.6513 13.9062C67.2475 15.1687 67.4038 16.725 67.97 17.6562C68.1525 17.9362 68.575 18.5487 69.1425 18.3137C69.6438 18.1125 69.5338 17.48 69.6763 16.92C69.7088 16.7837 69.6888 16.6987 69.755 16.6075V16.6337C69.9175 16.9462 70.0738 17.2462 70.2175 17.5587C70.5563 18.1062 71.1613 18.6725 71.6625 19.05C71.93 19.2512 72.1375 19.5975 72.47 19.72V19.6875H72.4438C72.3725 19.59 72.2813 19.5437 72.19 19.4662C71.9888 19.265 71.7663 19.0175 71.6038 18.7962C71.1413 18.1712 70.725 17.4812 70.36 16.7712C70.1775 16.42 70.0213 16.0425 69.8788 15.6975C69.8138 15.5675 69.8138 15.365 69.7025 15.3C69.5338 15.5412 69.2863 15.7487 69.1688 16.055C68.9538 16.53 68.9338 17.1225 68.85 17.735C68.8113 17.7475 68.83 17.735 68.8113 17.7612C68.4538 17.67 68.33 17.305 68.1988 16.9925C67.86 16.1987 67.8075 14.9287 68.095 14.0175C68.1738 13.7825 68.505 13.0475 68.375 12.8262C68.3038 12.6112 68.0825 12.4875 67.965 12.3187C67.815 12.11 67.665 11.8437 67.5613 11.6087C67.2938 10.9837 67.1638 10.2937 66.8713 9.66873C66.7413 9.38248 66.5063 9.08248 66.3175 8.81623C66.1025 8.51623 65.8688 8.30248 65.705 7.94998C65.6463 7.82623 65.5688 7.62498 65.66 7.49373C65.68 7.40248 65.725 7.36998 65.8163 7.34373C65.96 7.21998 66.3763 7.37623 66.52 7.44748C66.93 7.60998 67.275 7.76623 67.62 8.00123C67.7763 8.11248 67.945 8.31998 68.1475 8.37873H68.3825C68.74 8.45748 69.1375 8.39873 69.47 8.50248C70.0625 8.69123 70.5963 8.96498 71.0775 9.26373C72.5363 10.195 73.7338 11.51 74.5475 13.0787C74.6838 13.3325 74.7425 13.5675 74.8663 13.8337C75.0938 14.3875 75.3875 14.94 75.6213 15.4675C75.855 15.995 76.0775 16.5287 76.415 16.965C76.5838 17.2 77.2488 17.3225 77.5538 17.44C77.775 17.5437 78.12 17.635 78.315 17.7525C78.6988 17.9875 79.0763 18.2537 79.435 18.5137C79.6175 18.6375 80.1713 18.9175 80.2038 19.1387L80.205 19.1412Z" fill="#6C757D"/>
</g>
<path d="M39.0824 53H40.3024V67H38.8824V55.8L33.3824 65.22H32.6824L27.1824 55.86V67H25.7624V53H26.9824L33.0624 63.38L39.0824 53ZM52.004 56.48H53.404L48.144 68.26C47.264 70.32 46.144 70.98 44.644 70.98C43.664 70.98 42.724 70.66 42.084 70.02L42.744 68.96C43.264 69.48 43.904 69.76 44.664 69.76C45.604 69.76 46.244 69.32 46.844 68L47.304 66.98L42.604 56.48H44.084L48.044 65.42L52.004 56.48ZM64.7982 67.12C62.6982 67.12 60.6382 66.38 59.5982 65.3L60.1782 64.16C61.1782 65.14 62.9582 65.86 64.7982 65.86C67.4182 65.86 68.5582 64.76 68.5582 63.38C68.5582 59.54 59.9382 61.9 59.9382 56.72C59.9382 54.66 61.5382 52.88 65.0982 52.88C66.6782 52.88 68.3182 53.34 69.4382 54.12L68.9382 55.3C67.7382 54.52 66.3382 54.14 65.0982 54.14C62.5382 54.14 61.3982 55.28 61.3982 56.68C61.3982 60.52 70.0182 58.2 70.0182 63.3C70.0182 65.36 68.3782 67.12 64.7982 67.12ZM86.6229 67.32L87.3429 68.18C86.4829 69.22 85.3029 69.78 83.9429 69.78C82.3029 69.78 80.9429 69.04 79.1029 67.12C75.0029 67 72.0029 64 72.0029 60C72.0029 55.92 75.1229 52.88 79.3629 52.88C83.5629 52.88 86.7029 55.9 86.7029 60C86.7029 63.58 84.3229 66.32 80.9229 66.98C81.9829 68.1 82.9629 68.6 83.9629 68.6C85.0229 68.6 85.8829 68.18 86.6229 67.32ZM73.4629 60C73.4629 63.32 75.9829 65.8 79.3629 65.8C82.7229 65.8 85.2229 63.32 85.2229 60C85.2229 56.68 82.7229 54.2 79.3629 54.2C75.9829 54.2 73.4629 56.68 73.4629 60ZM90.0202 67V53H91.5002V65.72H99.3402V67H90.0202Z" fill="#6C757D"/>
<defs>
<clipPath id="clip0_32_491">
<rect width="40" height="40" fill="white" transform="translate(41.5)"/>
</clipPath>
</defs>
</svg>
