<svg width="123" height="72" viewBox="0 0 123 72" fill="none" xmlns="http://www.w3.org/2000/svg">
<g clip-path="url(#clip0_32_555)">
<path d="M65.0517 0.0783691C64.7633 0.0783691 64.495 0.140036 64.2467 0.223369C64.7733 0.573369 65.0633 1.04004 65.2067 1.5667C65.2183 1.63837 65.2383 1.69004 65.2483 1.7617C65.2607 1.82322 65.2679 1.88565 65.27 1.94837C65.31 2.8567 65.0317 2.9717 64.8367 3.50837C64.5367 4.20004 64.62 4.94337 64.98 5.5417C65.013 5.62194 65.0543 5.69847 65.1033 5.77004C64.7117 3.1567 66.8917 2.76504 67.2933 1.94837C67.325 1.23504 66.7367 0.760036 66.2717 0.430036C65.9062 0.200418 65.4832 0.079062 65.0517 0.0800358V0.0783691ZM68.3367 0.666703C68.2967 0.905036 68.3267 0.843369 68.3167 0.966702C68.3067 1.05004 68.3067 1.15337 68.2967 1.23504C68.275 1.31837 68.255 1.4017 68.2233 1.48337C68.2033 1.5667 68.1733 1.65004 68.14 1.7317L68.0283 1.96837C67.995 2.01004 67.9767 2.0517 67.945 2.09337L67.8833 2.18504C67.8342 2.25576 67.7825 2.3247 67.7283 2.3917C67.6667 2.45504 67.615 2.5267 67.5417 2.57837V2.58837C67.48 2.64004 67.4183 2.7017 67.345 2.75504C67.1283 2.92004 66.8817 3.04337 66.6533 3.19837C66.5817 3.24837 66.5083 3.2917 66.4467 3.35337C66.3765 3.40269 66.3108 3.45789 66.25 3.51837C66.1783 3.58004 66.1267 3.6417 66.065 3.71504C66.0133 3.7767 65.9517 3.84837 65.91 3.9217C65.8581 3.99149 65.8097 4.0638 65.765 4.13837C65.7233 4.2217 65.6933 4.29337 65.6517 4.37504C65.62 4.45837 65.59 4.53004 65.5683 4.61337C65.541 4.69849 65.5171 4.78467 65.4967 4.8717C65.4867 4.91337 65.4867 4.96504 65.4767 5.00504C65.465 5.0467 65.465 5.08837 65.455 5.13004C65.455 5.21337 65.445 5.30504 65.445 5.38837C65.445 5.45004 65.445 5.5117 65.455 5.57337C65.455 5.6567 65.465 5.74004 65.4867 5.8317C65.4967 5.91504 65.5167 5.99837 65.5367 6.0817C65.57 6.16337 65.59 6.24504 65.62 6.32837C65.6417 6.37837 65.6717 6.4317 65.6933 6.47337L63.3167 5.55337C62.915 5.44004 62.5217 5.3367 62.1183 5.24337L61.4683 5.08837C60.8483 4.96504 60.2183 4.8717 59.5883 4.81004C59.5667 4.81004 59.5567 4.80004 59.5367 4.80004C58.4721 4.6934 57.4003 4.67945 56.3333 4.75837C55.7033 4.80004 55.0733 4.8817 54.4433 4.98504C53.9752 5.0657 53.5099 5.16243 53.0483 5.27504L52.5833 5.39837C52.43 5.46004 52.2833 5.5317 52.14 5.59504L51.7983 5.75004C51.7783 5.76004 51.7583 5.76004 51.7483 5.77004C51.6433 5.8217 51.5517 5.86337 51.4583 5.91504C51.3241 5.97423 51.1929 6.03986 51.065 6.1117C50.9933 6.1417 50.9217 6.18337 50.8583 6.21504C50.8287 6.2334 50.7981 6.2501 50.7667 6.26504C50.6733 6.31837 50.58 6.37004 50.4967 6.4217C50.4116 6.46872 50.3293 6.52047 50.25 6.5767C50.1767 6.6267 50.105 6.66837 50.0433 6.72004C50.0333 6.7317 50.0217 6.7317 50.0117 6.7417C49.95 6.78337 49.8783 6.83504 49.815 6.8867L49.795 6.9067L49.64 7.03004C49.62 7.0417 49.5983 7.0617 49.5783 7.0717C49.5267 7.11337 49.475 7.16504 49.4233 7.20504C49.4133 7.2267 49.3917 7.23837 49.3817 7.2467C49.32 7.31004 49.2583 7.3617 49.1967 7.42337C49.185 7.42337 49.185 7.43337 49.175 7.44337C49.1108 7.49951 49.049 7.55846 48.99 7.62004C48.9783 7.63004 48.9783 7.64004 48.9683 7.64004C48.9141 7.69313 48.8624 7.74875 48.8133 7.8067C48.7933 7.8267 48.7633 7.8467 48.7417 7.8667C48.6863 7.93218 48.6273 7.9945 48.565 8.05337C48.555 8.07337 48.535 8.08504 48.525 8.10337C48.4417 8.1867 48.37 8.27004 48.2867 8.35337L48.2567 8.38337C48.09 8.56004 47.915 8.73504 47.7283 8.89004C47.5433 9.0567 47.3467 9.21004 47.15 9.34504C46.7551 9.62709 46.329 9.86255 45.88 10.0467C45.6633 10.14 45.435 10.2234 45.2083 10.295C44.775 10.3884 44.33 10.5634 43.9483 10.595C43.865 10.595 43.7733 10.615 43.69 10.625L43.4317 10.6867L43.1833 10.78C43.1 10.8117 43.0183 10.8534 42.9367 10.8934C42.8633 10.945 42.7817 10.9867 42.7083 11.0384C42.6348 11.0916 42.5657 11.1507 42.5017 11.215C42.43 11.265 42.3567 11.3384 42.295 11.4C42.2333 11.4717 42.1717 11.5334 42.12 11.6067C42.0683 11.69 42.0067 11.7617 41.965 11.845C41.9107 11.9201 41.8622 11.9992 41.82 12.0817C41.7783 12.175 41.7367 12.2584 41.7067 12.35C41.675 12.4334 41.645 12.5267 41.6133 12.6184C41.5933 12.7017 41.5717 12.785 41.5633 12.8684C41.5633 12.8767 41.5517 12.8884 41.5517 12.8984C41.5317 12.9917 41.5317 13.115 41.52 13.1767C41.51 13.25 41.5 13.31 41.5 13.3834C41.4981 13.5631 41.5404 13.7405 41.6233 13.9V13.91C41.655 13.9717 41.6967 14.035 41.7383 14.0967C41.7783 14.1584 41.8217 14.22 41.8717 14.2817C41.9233 14.3334 41.985 14.3967 42.0483 14.4484C42.1086 14.5088 42.1738 14.564 42.2433 14.6134C42.4917 14.83 42.5533 14.9017 42.8733 15.0667C42.925 15.0984 42.9767 15.1184 43.04 15.15C43.05 15.15 43.06 15.16 43.07 15.16C43.07 15.1817 43.07 15.1917 43.08 15.2117C43.1041 15.3821 43.1489 15.5488 43.2133 15.7084C43.2467 15.77 43.2667 15.8317 43.2967 15.8934C43.3083 15.915 43.3183 15.935 43.33 15.945C43.37 16.0284 43.4117 16.1 43.4517 16.1734L43.6067 16.39C43.6583 16.4517 43.7217 16.5234 43.7833 16.5867C43.845 16.6484 43.9067 16.7 43.98 16.7617C43.98 16.7617 43.99 16.7717 44 16.7717C44.0617 16.8234 44.1233 16.875 44.1867 16.9167C44.2585 16.9671 44.3343 17.0117 44.4133 17.05C44.485 17.0917 44.5683 17.1334 44.65 17.165C44.7166 17.1951 44.7858 17.2191 44.8567 17.2367C44.8683 17.2467 44.8783 17.2467 44.8983 17.2567C44.94 17.2684 44.9917 17.2784 45.0317 17.2884C45.0017 17.8467 44.9917 18.3717 45.075 18.5584C45.1667 18.765 45.6217 18.135 46.075 17.4117C46.015 18.125 45.9733 18.9617 46.075 19.21C46.19 19.4684 46.8083 18.6617 47.3467 17.7734C54.6717 16.08 61.355 21.14 62.0567 28.29C61.9233 27.1734 60.5483 26.555 59.9183 26.71C59.6083 27.4734 59.0817 28.455 58.235 29.065C58.3067 28.3817 58.2767 27.6817 58.1317 26.9984C57.9003 27.9496 57.4628 28.8383 56.85 29.6017C55.87 29.6734 54.8883 29.1984 54.3717 28.485C54.33 28.455 54.32 28.3934 54.2883 28.3517C54.2583 28.28 54.2267 28.2067 54.205 28.135C54.175 28.0658 54.1543 27.993 54.1433 27.9184C54.1333 27.845 54.1333 27.7734 54.1333 27.69V27.535C54.1457 27.4617 54.1629 27.3893 54.185 27.3184C54.2067 27.2467 54.2267 27.175 54.2583 27.1017C54.2983 27.03 54.33 26.9567 54.3817 26.885C54.5567 26.3884 54.5567 25.985 54.2367 25.7484C54.1745 25.7078 54.1087 25.6732 54.04 25.645C54 25.635 53.9483 25.615 53.9067 25.6034L53.8233 25.5734C53.7526 25.5505 53.6801 25.5332 53.6067 25.5217C53.5363 25.5011 53.4633 25.4904 53.39 25.49C53.315 25.4783 53.2393 25.4716 53.1633 25.47C53.1117 25.47 53.06 25.48 53.0083 25.48C52.9311 25.4796 52.8542 25.4903 52.78 25.5117C52.7083 25.5217 52.6367 25.5317 52.5633 25.5517C52.4896 25.5715 52.4172 25.596 52.3467 25.625C52.275 25.655 52.2133 25.6867 52.14 25.7184C52.0783 25.7484 52.0167 25.79 51.9433 25.8217C49.5367 27.3917 50.9733 31.0684 52.615 32.1334C51.995 32.2467 51.365 32.38 51.19 32.515L51.1683 32.535C51.6133 32.8034 52.0783 33.0317 52.5633 33.2284C53.225 33.445 53.9267 33.64 54.2367 33.7234V33.7334C55.0926 33.9091 55.9678 33.9719 56.84 33.92C61.4167 33.6 65.1667 30.1184 65.8483 25.5317L65.91 25.8C65.9417 25.9867 65.9817 26.1834 66.0033 26.3784V26.3884C66.0233 26.4817 66.0333 26.575 66.045 26.6584V26.6984C66.055 26.7917 66.065 26.885 66.065 26.9684C66.075 27.0817 66.085 27.195 66.085 27.3084V27.475C66.085 27.525 66.0967 27.5867 66.0967 27.6384C66.0967 27.7017 66.085 27.7634 66.085 27.825V27.97C66.085 28.0417 66.075 28.1034 66.075 28.1767C66.075 28.2184 66.075 28.26 66.065 28.31C66.065 28.3834 66.055 28.455 66.055 28.5384C66.045 28.5684 66.045 28.6 66.045 28.63L66.0117 28.8684C66.0117 28.9 66.0117 28.93 66.0033 28.9617C65.9917 29.065 65.9717 29.1584 65.9617 29.2617V29.2817L65.9 29.5717V29.6017L65.8383 29.88C65.8383 29.8917 65.8267 29.9134 65.8267 29.9217C65.8077 30.0162 65.7837 30.1097 65.755 30.2017V30.2317C65.7233 30.335 65.6933 30.4284 65.6717 30.5217C65.6617 30.5317 65.6617 30.5417 65.6617 30.5417L65.5683 30.8517C65.5283 30.955 65.4967 31.0484 65.455 31.1517C65.4133 31.255 65.3833 31.3584 65.3417 31.4517C65.3 31.555 65.2583 31.6467 65.2183 31.7517H65.2067C65.1667 31.8434 65.1233 31.9467 65.0733 32.04C65.0647 32.0647 65.0541 32.0887 65.0417 32.1117C65.0317 32.1217 65.0317 32.1334 65.0217 32.1434C64.3385 33.5111 63.3441 34.6996 62.1183 35.6134C62.035 35.665 61.9533 35.7284 61.87 35.79C61.85 35.81 61.82 35.82 61.7983 35.84C61.7245 35.8946 61.6489 35.9469 61.5717 35.9967L61.6017 36.0584H61.6133L62.0467 35.9967H62.0567C62.325 35.955 62.5933 35.9034 62.8617 35.8517C62.935 35.8417 63.0167 35.82 63.09 35.8L63.235 35.7684C63.3067 35.7584 63.3783 35.7384 63.4517 35.7284C63.5133 35.7067 63.575 35.695 63.6367 35.6767C64.67 35.4267 65.6717 35.0867 66.6333 34.685C64.9731 36.9464 62.765 38.7484 60.2167 39.9217C61.4067 39.8384 62.5933 39.6434 63.74 39.3117C67.8904 38.0915 71.3957 35.2905 73.5017 31.5117C73.0763 33.9038 72.1276 36.1723 70.7233 38.155C71.7245 37.4946 72.6496 36.7255 73.4817 35.8617C75.7939 33.4477 77.3119 30.3838 77.8317 27.0817C78.1817 28.715 78.285 30.3984 78.1317 32.06C85.5883 21.6584 78.75 10.8734 75.8883 8.03337C75.8783 8.0117 75.8683 8.0017 75.8683 7.9817C75.8583 7.9917 75.8583 7.9917 75.8583 8.0017C75.8583 7.9917 75.8583 7.9917 75.8467 7.9817C75.8467 8.10504 75.8367 8.22837 75.8267 8.35337C75.798 8.58475 75.7636 8.81538 75.7233 9.04504C75.6733 9.2717 75.61 9.50004 75.5483 9.72837C75.475 9.94504 75.3933 10.1717 75.2983 10.3884C75.2039 10.6024 75.101 10.8125 74.99 11.0184C74.7594 11.4233 74.4933 11.807 74.195 12.165C74.04 12.35 73.875 12.515 73.7083 12.6817C73.6109 12.7708 73.5109 12.8569 73.4083 12.94L73.1717 13.1467C72.9873 13.2922 72.7941 13.4264 72.5933 13.5484C72.3959 13.6755 72.1923 13.7929 71.9833 13.9C71.7667 14.0034 71.55 14.0967 71.3333 14.19C70.892 14.3579 70.4354 14.4824 69.97 14.5617C69.7317 14.6034 69.495 14.6234 69.2667 14.645C69.1019 14.6567 68.9368 14.6634 68.7717 14.665C68.5367 14.6618 68.302 14.6479 68.0683 14.6234C67.8324 14.6048 67.5979 14.5703 67.3667 14.52C67.1324 14.4775 66.9013 14.4191 66.675 14.345H66.6633C66.8917 14.3234 67.1183 14.3034 67.3467 14.2617C67.8118 14.1811 68.2683 14.0566 68.71 13.89C68.9367 13.8067 69.1533 13.7034 69.36 13.6C69.5767 13.4967 69.7733 13.3834 69.98 13.26C70.1767 13.1267 70.3717 12.9917 70.5583 12.8467C70.745 12.7017 70.92 12.5467 71.085 12.3817C71.26 12.2267 71.415 12.0517 71.57 11.875C71.725 11.69 71.87 11.5034 72.0033 11.3184C72.025 11.2867 72.0467 11.245 72.0667 11.215C72.17 11.0484 72.2733 10.8834 72.3667 10.7184C72.5944 10.3072 72.7809 9.87458 72.9233 9.4267C72.9967 9.21004 73.0483 8.98337 73.1 8.75504C73.1417 8.51837 73.1833 8.2917 73.2033 8.06337C73.2233 7.8267 73.245 7.58837 73.245 7.3617C73.245 7.19504 73.2333 7.03004 73.2233 6.86504C73.2027 6.63367 73.1749 6.40301 73.14 6.17337C73.0998 5.94052 73.0487 5.70971 72.9867 5.4817C72.9133 5.26504 72.8417 5.0367 72.7583 4.82004C72.675 4.60337 72.5733 4.3867 72.47 4.18004C72.355 3.97337 72.2417 3.7667 72.1183 3.57004C71.9864 3.37695 71.8486 3.18798 71.705 3.00337C71.55 2.8267 71.395 2.65004 71.23 2.47504C71.1431 2.38636 71.0536 2.30022 70.9617 2.2167C70.495 1.85504 70.0117 1.51504 69.525 1.20504C69.4582 1.16648 69.3892 1.13197 69.3183 1.1017C69.0119 0.914092 68.6818 0.766686 68.3367 0.666703Z" fill="#6C757D"/>
</g>
<path d="M39.7329 53H41.1929V67H39.9729L30.9729 55.64V67H29.4929V53H30.7129L39.7329 64.36V53ZM54.6424 61.74C54.6424 61.86 54.6224 62.02 54.6224 62.18H45.8224C45.9824 64.38 47.6624 65.84 49.9624 65.84C51.2424 65.84 52.3824 65.38 53.1824 64.46L53.9824 65.38C53.0424 66.5 51.5824 67.1 49.9224 67.1C46.6424 67.1 44.4024 64.86 44.4024 61.74C44.4024 58.62 46.5824 56.4 49.5424 56.4C52.5024 56.4 54.6424 58.58 54.6424 61.74ZM49.5424 57.62C47.5024 57.62 46.0024 59.06 45.8224 61.12H53.2824C53.1024 59.06 51.6024 57.62 49.5424 57.62ZM60.3527 67.1C58.6127 67.1 56.9327 66.54 56.0727 65.8L56.7127 64.68C57.5527 65.34 58.9727 65.86 60.4527 65.86C62.4527 65.86 63.2727 65.18 63.2727 64.14C63.2727 61.4 56.4527 63.56 56.4527 59.4C56.4527 57.68 57.9327 56.4 60.6127 56.4C61.9727 56.4 63.4527 56.78 64.3327 57.38L63.7127 58.52C62.7927 57.88 61.6927 57.62 60.6127 57.62C58.7127 57.62 57.8727 58.36 57.8727 59.36C57.8727 62.2 64.6927 60.06 64.6927 64.1C64.6927 65.92 63.0927 67.1 60.3527 67.1ZM72.3579 65.34L72.8579 66.36C72.2979 66.86 71.4579 67.1 70.6379 67.1C68.6579 67.1 67.5579 65.98 67.5579 64.04V57.68H65.6779V56.48H67.5579V54.18H68.9779V56.48H72.1779V57.68H68.9779V63.96C68.9779 65.2 69.6179 65.88 70.7979 65.88C71.3779 65.88 71.9579 65.7 72.3579 65.34ZM77.2429 67.12C75.6629 67.12 74.2229 66.4 73.3629 65.12L74.2429 64.12C75.0029 65.24 76.0229 65.84 77.2629 65.84C78.9829 65.84 79.8629 64.82 79.8629 62.76V54.28H74.7429V53H81.3229V62.7C81.3229 65.66 79.9229 67.12 77.2429 67.12ZM89.6224 67.12C87.5224 67.12 85.4624 66.38 84.4224 65.3L85.0024 64.16C86.0024 65.14 87.7824 65.86 89.6224 65.86C92.2424 65.86 93.3824 64.76 93.3824 63.38C93.3824 59.54 84.7624 61.9 84.7624 56.72C84.7624 54.66 86.3624 52.88 89.9224 52.88C91.5024 52.88 93.1424 53.34 94.2624 54.12L93.7624 55.3C92.5624 54.52 91.1624 54.14 89.9224 54.14C87.3624 54.14 86.2224 55.28 86.2224 56.68C86.2224 60.52 94.8424 58.2 94.8424 63.3C94.8424 65.36 93.2024 67.12 89.6224 67.12Z" fill="#6C757D"/>
<defs>
<clipPath id="clip0_32_555">
<rect width="40" height="40" fill="white" transform="translate(41.5)"/>
</clipPath>
</defs>
</svg>
