<svg width="123" height="72" viewBox="0 0 123 72" fill="none" xmlns="http://www.w3.org/2000/svg">
<path d="M61.4927 3.75C61.0364 3.75 60.5803 3.86191 60.1865 4.08691L47.7988 11.2378C46.9988 11.7003 46.5 12.576 46.5 13.501V26.4746C46.5 27.4121 46.9988 28.2753 47.7988 28.7378L51.0508 30.6128C52.6258 31.3878 53.1874 31.3867 53.8999 31.3867C56.2374 31.3867 57.5742 29.9744 57.5742 27.5244V14.1382C57.5742 13.9382 57.4129 13.7744 57.2129 13.7744H55.6504C55.4379 13.7744 55.2866 13.9382 55.2866 14.1382V27.5122C55.2866 28.6122 54.1505 29.6869 52.313 28.7744L48.9121 26.8115C48.7871 26.749 48.7119 26.6121 48.7119 26.4746V13.5132C48.7119 13.3632 48.7871 13.2366 48.9121 13.1616L61.2998 6.01318C61.4123 5.93818 61.563 5.93818 61.688 6.01318L74.0757 13.1616C74.2007 13.2366 74.2759 13.3635 74.2759 13.501V26.4746C74.2759 26.6121 74.2004 26.749 74.0879 26.8115L61.688 33.9746C61.5755 34.0371 61.4123 34.0371 61.2998 33.9746L58.1113 32.0874C58.0238 32.0249 57.901 32.013 57.8135 32.063C56.926 32.563 56.7635 32.6251 55.9385 32.9126C55.7385 32.9751 55.4258 33.0997 56.0508 33.4497L60.1865 35.9009C60.5865 36.1259 61.0378 36.25 61.4878 36.25C61.9503 36.25 62.3988 36.1259 62.7988 35.9009L75.2012 28.7378C76.0012 28.2753 76.5 27.4121 76.5 26.4746V13.5132C76.5 12.5757 76.0012 11.7125 75.2012 11.25L62.7988 4.08691C62.4051 3.86191 61.9489 3.75 61.4927 3.75ZM64.8252 13.7573C61.2877 13.7573 59.1758 15.2563 59.1758 17.7563C59.1758 20.4688 61.2738 21.2177 64.6738 21.5552C68.7363 21.9552 69.0488 22.5569 69.0488 23.3569C69.0488 24.7319 67.9382 25.3198 65.3257 25.3198C62.0382 25.3198 61.3127 24.4937 61.0752 22.8687C61.0502 22.6937 60.9011 22.5684 60.7261 22.5684H59.1123C58.9123 22.5684 58.7632 22.7324 58.7632 22.9199C58.7632 25.0074 59.9007 27.4927 65.3257 27.4927C69.2507 27.4927 71.5 25.9446 71.5 23.2446C71.5 20.5696 69.6872 19.8558 65.8872 19.3433C62.0247 18.8433 61.6367 18.5807 61.6367 17.6807C61.6367 16.9307 61.9752 15.9448 64.8252 15.9448C67.3627 15.9448 68.3122 16.4931 68.6997 18.2056C68.7372 18.3681 68.8738 18.4937 69.0488 18.4937H70.6626C70.7626 18.4937 70.8488 18.4441 70.9238 18.3691C70.9863 18.3066 71.0242 18.2058 71.0117 18.0933C70.7617 15.1433 68.8002 13.7573 64.8252 13.7573Z" fill="#6C757D"/>
<path d="M35.6411 53H37.1011V67H35.8811L26.8811 55.64V67H25.4011V53H26.6211L35.6411 64.36V53ZM45.6706 67.1C42.5906 67.1 40.3106 64.86 40.3106 61.74C40.3106 58.62 42.5906 56.4 45.6706 56.4C48.7506 56.4 51.0106 58.62 51.0106 61.74C51.0106 64.86 48.7506 67.1 45.6706 67.1ZM45.6706 65.84C47.9106 65.84 49.5706 64.2 49.5706 61.74C49.5706 59.28 47.9106 57.64 45.6706 57.64C43.4306 57.64 41.7506 59.28 41.7506 61.74C41.7506 64.2 43.4306 65.84 45.6706 65.84ZM62.0897 52.16H63.5097V67H62.1497V64.92C61.2897 66.34 59.8297 67.1 58.0897 67.1C55.0897 67.1 52.8497 64.92 52.8497 61.74C52.8497 58.56 55.0897 56.4 58.0897 56.4C59.7697 56.4 61.2097 57.12 62.0897 58.48V52.16ZM58.2097 65.84C60.4297 65.84 62.1097 64.2 62.1097 61.74C62.1097 59.28 60.4297 57.64 58.2097 57.64C55.9697 57.64 54.2897 59.28 54.2897 61.74C54.2897 64.2 55.9697 65.84 58.2097 65.84ZM76.6444 61.74C76.6444 61.86 76.6244 62.02 76.6244 62.18H67.8244C67.9844 64.38 69.6644 65.84 71.9644 65.84C73.2444 65.84 74.3844 65.38 75.1844 64.46L75.9844 65.38C75.0444 66.5 73.5844 67.1 71.9244 67.1C68.6444 67.1 66.4044 64.86 66.4044 61.74C66.4044 58.62 68.5844 56.4 71.5444 56.4C74.5044 56.4 76.6444 58.58 76.6444 61.74ZM71.5444 57.62C69.5044 57.62 68.0044 59.06 67.8244 61.12H75.2844C75.1044 59.06 73.6044 57.62 71.5444 57.62ZM81.3347 67.12C79.7547 67.12 78.3147 66.4 77.4547 65.12L78.3347 64.12C79.0947 65.24 80.1147 65.84 81.3547 65.84C83.0747 65.84 83.9547 64.82 83.9547 62.76V54.28H78.8347V53H85.4147V62.7C85.4147 65.66 84.0147 67.12 81.3347 67.12ZM93.7142 67.12C91.6142 67.12 89.5542 66.38 88.5142 65.3L89.0942 64.16C90.0942 65.14 91.8742 65.86 93.7142 65.86C96.3342 65.86 97.4742 64.76 97.4742 63.38C97.4742 59.54 88.8542 61.9 88.8542 56.72C88.8542 54.66 90.4542 52.88 94.0142 52.88C95.5942 52.88 97.2342 53.34 98.3542 54.12L97.8542 55.3C96.6542 54.52 95.2542 54.14 94.0142 54.14C91.4542 54.14 90.3142 55.28 90.3142 56.68C90.3142 60.52 98.9342 58.2 98.9342 63.3C98.9342 65.36 97.2942 67.12 93.7142 67.12Z" fill="#6C757D"/>
</svg>
