<svg width="123" height="72" viewBox="0 0 123 72" fill="none" xmlns="http://www.w3.org/2000/svg">
<g clip-path="url(#clip0_32_510)">
<path fill-rule="evenodd" clip-rule="evenodd" d="M54.1497 32.5C47.1667 32.5 41.5 26.9134 41.5 20.01C41.5 13.1065 47.1667 7.5 54.1497 7.5H68.8524C75.8373 7.5 81.5 13.1065 81.5 20.01C81.5 26.9134 75.8373 32.5 68.8524 32.5H54.1497ZM68.5253 28.0906C73.0495 28.0906 76.7135 24.4792 76.7135 20.01C76.7135 15.5407 73.0495 11.9094 68.5253 11.9094H54.4747C49.9526 11.9094 46.2865 15.5407 46.2865 20.01C46.2865 24.4792 49.9526 28.0906 54.4747 28.0906H68.5253Z" fill="#6C757D"/>
</g>
<path d="M37.3902 67.12C33.1502 67.12 30.0302 64.08 30.0302 60C30.0302 55.92 33.1502 52.88 37.3902 52.88C41.5902 52.88 44.7302 55.9 44.7302 60C44.7302 64.1 41.5902 67.12 37.3902 67.12ZM37.3902 65.8C40.7502 65.8 43.2502 63.34 43.2502 60C43.2502 56.66 40.7502 54.2 37.3902 54.2C34.0102 54.2 31.4902 56.66 31.4902 60C31.4902 63.34 34.0102 65.8 37.3902 65.8ZM49.1076 58.54C49.7676 57.14 51.1076 56.4 53.0476 56.4V57.78C52.9276 57.78 52.8076 57.76 52.7076 57.76C50.5076 57.76 49.1676 59.16 49.1676 61.64V67H47.7476V56.48H49.1076V58.54ZM59.2791 56.4C61.9991 56.4 63.5391 57.76 63.5391 60.48V67H62.1791V65.36C61.5391 66.44 60.2991 67.1 58.5591 67.1C56.1791 67.1 54.7191 65.86 54.7191 64.04C54.7191 62.42 55.7591 61.06 58.7791 61.06H62.1191V60.42C62.1191 58.62 61.0991 57.64 59.1391 57.64C57.7791 57.64 56.4991 58.12 55.6391 58.88L54.9991 57.82C56.0591 56.92 57.6191 56.4 59.2791 56.4ZM58.7791 65.98C60.3791 65.98 61.5591 65.22 62.1191 63.84V62.12H58.8191C56.7791 62.12 56.1191 62.92 56.1191 64C56.1191 65.22 57.0991 65.98 58.7791 65.98ZM71.7951 67.1C68.6551 67.1 66.3751 64.88 66.3751 61.74C66.3751 58.6 68.6551 56.4 71.7951 56.4C73.5751 56.4 75.0751 57.1 75.9151 58.48L74.8551 59.2C74.1351 58.14 73.0151 57.64 71.7951 57.64C69.4951 57.64 67.8151 59.28 67.8151 61.74C67.8151 64.22 69.4951 65.84 71.7951 65.84C73.0151 65.84 74.1351 65.36 74.8551 64.3L75.9151 65.02C75.0751 66.38 73.5751 67.1 71.7951 67.1ZM78.5484 67V52.16H79.9684V67H78.5484ZM93.0995 61.74C93.0995 61.86 93.0795 62.02 93.0795 62.18H84.2795C84.4395 64.38 86.1195 65.84 88.4195 65.84C89.6995 65.84 90.8395 65.38 91.6395 64.46L92.4395 65.38C91.4995 66.5 90.0395 67.1 88.3795 67.1C85.0995 67.1 82.8595 64.86 82.8595 61.74C82.8595 58.62 85.0395 56.4 87.9995 56.4C90.9595 56.4 93.0995 58.58 93.0995 61.74ZM87.9995 57.62C85.9595 57.62 84.4595 59.06 84.2795 61.12H91.7395C91.5595 59.06 90.0595 57.62 87.9995 57.62Z" fill="#6C757D"/>
<defs>
<clipPath id="clip0_32_510">
<rect width="40" height="40" fill="white" transform="translate(41.5)"/>
</clipPath>
</defs>
</svg>
