<svg width="124" height="72" viewBox="0 0 124 72" fill="none" xmlns="http://www.w3.org/2000/svg">
<g clip-path="url(#clip0_32_416)">
<path d="M62 9.16675C50.7858 9.16675 42 13.9259 42 20.0001C42 26.0742 50.7858 30.8334 62 30.8334C73.2142 30.8334 82 26.0742 82 20.0001C82 13.9259 73.2142 9.16675 62 9.16675ZM59.9232 12.5001H62.1075L61.414 15.8334H63.364C64.6008 15.8334 65.431 16.0059 65.903 16.4389C66.3652 16.8652 66.5052 17.5652 66.3197 18.5189L65.4538 22.5001H63.2337L64.0313 18.8184C64.1288 18.3139 64.0898 17.9622 63.9205 17.7767C63.7513 17.5912 63.3802 17.5001 62.8235 17.5001H61.0755L60.0208 22.5001H57.8333L59.9232 12.5001ZM50.3333 15.8334H54.7767C56.8958 15.8334 58.1784 17.2527 57.6771 19.3717C57.0944 21.8327 55.5319 22.5001 52.6608 22.5001H51.2871L50.8509 25.0001H48.6439L50.3333 15.8334ZM67.8333 15.8334H72.2767C74.3958 15.8334 75.6783 17.2527 75.177 19.3717C74.5943 21.8327 73.0318 22.5001 70.1608 22.5001H68.7872L68.3508 25.0001H66.1438L67.8333 15.8334ZM52.2246 17.5001L51.5963 20.8334H53.0221C54.2559 20.8334 55.4017 20.6934 55.5938 18.8542C55.6654 18.1414 55.3691 17.5001 53.9434 17.5001H52.2246ZM69.7247 17.5001L69.0963 20.8334H70.5222C71.7558 20.8334 72.9017 20.6934 73.0937 18.8542C73.1653 18.1414 72.8692 17.5001 71.4433 17.5001H69.7247Z" fill="#6C757D"/>
</g>
<path d="M47.1274 53C50.6874 53 52.8474 54.8 52.8474 57.8C52.8474 60.78 50.6874 62.58 47.1274 62.58H43.3674V67H41.8874V53H47.1274ZM47.0874 61.28C49.8874 61.28 51.3674 60 51.3674 57.8C51.3674 55.56 49.8874 54.28 47.0874 54.28H43.3674V61.28H47.0874ZM66.2876 53H67.7476V67H66.2876V60.54H57.5276V67H56.0476V53H57.5276V59.24H66.2876V53ZM77.5571 53C81.1171 53 83.2771 54.8 83.2771 57.8C83.2771 60.78 81.1171 62.58 77.5571 62.58H73.7971V67H72.3171V53H77.5571ZM77.5171 61.28C80.3171 61.28 81.7971 60 81.7971 57.8C81.7971 55.56 80.3171 54.28 77.5171 54.28H73.7971V61.28H77.5171Z" fill="#6C757D"/>
<defs>
<clipPath id="clip0_32_416">
<rect width="40" height="40" fill="white" transform="translate(42)"/>
</clipPath>
</defs>
</svg>
