<svg width="123" height="72" viewBox="0 0 123 72" fill="none" xmlns="http://www.w3.org/2000/svg">
<path d="M73.5828 14.1188C73.1833 13.9824 72.781 13.8553 72.3758 13.7376C72.443 13.4642 72.5049 13.1892 72.5617 12.9126C73.4758 8.46728 72.8781 4.88603 70.8383 3.70712C68.8852 2.57587 65.682 3.75478 62.4508 6.57353C62.1331 6.85165 61.8219 7.13811 61.5172 7.4329C61.3141 7.23707 61.1057 7.0454 60.8922 6.8579C57.5055 3.84384 54.1109 2.57431 52.0734 3.75712C50.1203 4.89071 49.5398 8.25712 50.3625 12.4704C50.4448 12.8871 50.5372 13.3019 50.6398 13.7149C50.1594 13.8517 49.6953 13.9977 49.2516 14.1524C45.2859 15.5392 42.75 17.7134 42.75 19.9681C42.75 22.2977 45.4719 24.6337 49.607 26.0501C49.9424 26.1642 50.281 26.2701 50.6227 26.3681C50.5117 26.8102 50.4135 27.2574 50.3281 27.7095C49.5469 31.8501 50.1563 35.1368 52.1055 36.2634C54.1188 37.4267 57.4961 36.2313 60.7883 33.3485C61.0487 33.1204 61.3091 32.8795 61.5695 32.6259C61.8987 32.9441 62.2372 33.253 62.5852 33.5524C65.7727 36.3009 68.9203 37.411 70.8664 36.2813C72.8781 35.1142 73.532 31.5829 72.6828 27.2868C72.6177 26.9587 72.5427 26.6238 72.4578 26.2821C72.6953 26.2118 72.9279 26.1392 73.1555 26.0642C77.4523 24.6368 80.2516 22.329 80.2516 19.9704C80.25 17.7048 77.6328 15.5165 73.5828 14.1188ZM63.5047 7.78446C66.2727 5.36962 68.8602 4.4165 70.0398 5.09775C71.2953 5.82353 71.7836 8.75009 70.9945 12.5884C70.9424 12.8384 70.8862 13.0876 70.8258 13.336C69.1739 12.9603 67.4989 12.6951 65.8117 12.5423C64.8457 11.1508 63.7868 9.82614 62.6422 8.57743C62.9224 8.30556 63.2094 8.04124 63.5031 7.78446H63.5047ZM53.8227 21.8946C54.1617 22.5509 54.5161 23.1991 54.8859 23.8392C55.2625 24.4923 55.6549 25.1358 56.0633 25.7696C54.9024 25.6434 53.7488 25.4575 52.607 25.2126C52.9383 24.1407 53.3461 23.0274 53.8227 21.8946ZM53.8227 18.1188C53.3539 17.0102 52.957 15.9196 52.6313 14.8665C53.7016 14.6267 54.8422 14.4306 56.0313 14.2821C55.6328 14.904 55.2495 15.535 54.8813 16.1751C54.513 16.8152 54.1594 17.4631 53.8203 18.1188H53.8227ZM54.6742 20.0071C55.168 18.9774 55.6997 17.9675 56.2695 16.9774C56.8388 15.9878 57.4448 15.0209 58.0875 14.0767C59.2031 13.9923 60.3469 13.9477 61.5023 13.9477C62.6578 13.9477 63.8086 13.9923 64.9234 14.0774C65.5594 15.0196 66.1617 15.9832 66.7305 16.9681C67.2992 17.953 67.838 18.9582 68.3469 19.9837C67.8448 21.017 67.3073 22.0311 66.7344 23.0259C66.1661 24.0155 65.5672 24.9852 64.9375 25.9352C63.8242 26.0134 62.6719 26.0563 61.5 26.0563C60.3281 26.0563 59.1977 26.0196 58.1047 25.9485C57.4573 25.0011 56.8464 24.03 56.2719 23.0352C55.6974 22.0405 55.1641 21.0311 54.6719 20.0071H54.6742ZM68.1211 23.8282C68.4987 23.173 68.8612 22.5092 69.2086 21.8368C69.6848 22.9166 70.1052 24.0201 70.468 25.1431C69.3128 25.4032 68.1448 25.6027 66.9688 25.7407C67.3656 25.111 67.7497 24.4735 68.1211 23.8282ZM69.193 18.1196C68.8471 17.4608 68.4875 16.8097 68.1141 16.1665C67.7495 15.5321 67.3695 14.9056 66.9742 14.2868C68.1703 14.4384 69.318 14.6399 70.3938 14.886C70.0479 15.9833 69.6471 17.0625 69.193 18.1196ZM61.518 9.72509C62.2981 10.5775 63.0347 11.4687 63.725 12.3954C62.2484 12.3251 60.7708 12.3251 59.2922 12.3954C60.0211 11.4313 60.7672 10.5368 61.518 9.72509ZM52.8797 5.1454C54.1344 4.41728 56.9086 5.4579 59.8328 8.05712C60.0195 8.22353 60.2078 8.39775 60.3953 8.57822C59.2448 9.82675 58.1784 11.1502 57.2031 12.5399C55.5197 12.6916 53.848 12.9526 52.1984 13.3212C52.1031 12.9378 52.0172 12.5519 51.9406 12.1634C51.2336 8.55165 51.7016 5.829 52.8797 5.1454ZM51.0508 24.8212C50.7383 24.7321 50.4297 24.6355 50.125 24.5313C48.2969 23.9063 46.7867 23.0907 45.75 22.2024C44.8219 21.4063 44.3516 20.6118 44.3516 19.9681C44.3516 18.6001 46.3875 16.8548 49.7828 15.6712C50.2094 15.5227 50.6396 15.3871 51.0734 15.2642C51.5777 16.8847 52.1884 18.4702 52.9016 20.0102C52.1799 21.5716 51.5616 23.1787 51.0508 24.8212ZM59.7328 32.1392C58.2773 33.4142 56.8195 34.3181 55.5344 34.7735C54.3797 35.1821 53.4602 35.1938 52.9047 34.8727C51.7219 34.1892 51.2297 31.5493 51.9008 28.0087C51.9805 27.592 52.0716 27.1754 52.1742 26.7587C53.8403 27.1176 55.5288 27.3627 57.2281 27.4923C58.2129 28.8892 59.2882 30.2202 60.4469 31.4767C60.2141 31.7056 59.9758 31.9259 59.7328 32.1392ZM61.5625 30.3251C60.8031 29.504 60.0453 28.5954 59.3063 27.6188C60.0245 27.647 60.7557 27.661 61.5 27.661C62.2641 27.661 63.0203 27.6446 63.7656 27.611C63.0778 28.5526 62.3425 29.4584 61.5625 30.3251ZM71.2906 32.5587C71.0672 33.7649 70.618 34.5696 70.0625 34.8915C68.8805 35.5774 66.3531 34.686 63.6281 32.3352C63.3156 32.0665 63.0031 31.7782 62.6852 31.4759C63.8213 30.2145 64.8713 28.8782 65.8281 27.4759C67.5369 27.3311 69.2336 27.0688 70.9063 26.6907C70.9828 27.0001 71.0505 27.3032 71.1094 27.6001C71.4852 29.4985 71.5391 31.2157 71.2906 32.5587ZM72.65 24.5399C72.4453 24.6079 72.2344 24.6735 72.0203 24.7376C71.4958 23.1094 70.8613 21.5188 70.1211 19.9767C70.8335 18.4551 71.4432 16.8875 71.9461 15.2845C72.3297 15.3962 72.7023 15.5134 73.0609 15.6376C76.5313 16.8345 78.6484 18.6063 78.6484 19.9681C78.6484 21.4212 76.3617 23.3071 72.65 24.5399Z" fill="#6C757D"/>
<path d="M61.5 23.3242C62.1649 23.3264 62.8155 23.1312 63.3693 22.7634C63.9232 22.3956 64.3555 21.8717 64.6114 21.258C64.8674 20.6444 64.9355 19.9686 64.8071 19.3162C64.6787 18.6638 64.3596 18.0642 63.8902 17.5933C63.4209 17.1224 62.8223 16.8013 62.1703 16.6708C61.5184 16.5403 60.8424 16.6062 60.2279 16.8601C59.6134 17.1141 59.0881 17.5446 58.7185 18.0973C58.3489 18.65 58.1516 19.2999 58.1516 19.9648C58.1506 20.4053 58.2365 20.8417 58.4043 21.249C58.5722 21.6563 58.8186 22.0265 59.1296 22.3385C59.4405 22.6504 59.81 22.8981 60.2167 23.0672C60.6234 23.2364 61.0595 23.3237 61.5 23.3242Z" fill="#6C757D"/>
<path d="M35.0088 67H33.3888L30.1888 62.5C29.8288 62.54 29.4688 62.56 29.0688 62.56H25.3088V67H23.8288V53H29.0688C32.6288 53 34.7888 54.8 34.7888 57.8C34.7888 60 33.6288 61.54 31.5888 62.2L35.0088 67ZM29.0288 61.3C31.8288 61.3 33.3088 60 33.3088 57.8C33.3088 55.56 31.8288 54.28 29.0288 54.28H25.3088V61.3H29.0288ZM47.162 61.74C47.162 61.86 47.142 62.02 47.142 62.18H38.342C38.502 64.38 40.182 65.84 42.482 65.84C43.762 65.84 44.902 65.38 45.702 64.46L46.502 65.38C45.562 66.5 44.102 67.1 42.442 67.1C39.162 67.1 36.922 64.86 36.922 61.74C36.922 58.62 39.102 56.4 42.062 56.4C45.022 56.4 47.162 58.58 47.162 61.74ZM42.062 57.62C40.022 57.62 38.522 59.06 38.342 61.12H45.802C45.622 59.06 44.122 57.62 42.062 57.62ZM53.4393 56.4C56.1593 56.4 57.6993 57.76 57.6993 60.48V67H56.3393V65.36C55.6993 66.44 54.4593 67.1 52.7193 67.1C50.3393 67.1 48.8793 65.86 48.8793 64.04C48.8793 62.42 49.9193 61.06 52.9393 61.06H56.2793V60.42C56.2793 58.62 55.2593 57.64 53.2993 57.64C51.9393 57.64 50.6593 58.12 49.7993 58.88L49.1593 57.82C50.2193 56.92 51.7793 56.4 53.4393 56.4ZM52.9393 65.98C54.5393 65.98 55.7193 65.22 56.2793 63.84V62.12H52.9793C50.9393 62.12 50.2793 62.92 50.2793 64C50.2793 65.22 51.2593 65.98 52.9393 65.98ZM65.9552 67.1C62.8152 67.1 60.5352 64.88 60.5352 61.74C60.5352 58.6 62.8152 56.4 65.9552 56.4C67.7352 56.4 69.2352 57.1 70.0752 58.48L69.0152 59.2C68.2952 58.14 67.1752 57.64 65.9552 57.64C63.6552 57.64 61.9752 59.28 61.9752 61.74C61.9752 64.22 63.6552 65.84 65.9552 65.84C67.1752 65.84 68.2952 65.36 69.0152 64.3L70.0752 65.02C69.2352 66.38 67.7352 67.1 65.9552 67.1ZM78.022 65.34L78.522 66.36C77.962 66.86 77.122 67.1 76.302 67.1C74.322 67.1 73.222 65.98 73.222 64.04V57.68H71.342V56.48H73.222V54.18H74.642V56.48H77.842V57.68H74.642V63.96C74.642 65.2 75.282 65.88 76.462 65.88C77.042 65.88 77.622 65.7 78.022 65.34ZM82.907 67.12C81.327 67.12 79.887 66.4 79.027 65.12L79.907 64.12C80.667 65.24 81.687 65.84 82.927 65.84C84.647 65.84 85.527 64.82 85.527 62.76V54.28H80.407V53H86.987V62.7C86.987 65.66 85.587 67.12 82.907 67.12ZM95.2865 67.12C93.1865 67.12 91.1265 66.38 90.0865 65.3L90.6665 64.16C91.6665 65.14 93.4465 65.86 95.2865 65.86C97.9065 65.86 99.0465 64.76 99.0465 63.38C99.0465 59.54 90.4265 61.9 90.4265 56.72C90.4265 54.66 92.0265 52.88 95.5865 52.88C97.1665 52.88 98.8065 53.34 99.9265 54.12L99.4265 55.3C98.2265 54.52 96.8265 54.14 95.5865 54.14C93.0265 54.14 91.8865 55.28 91.8865 56.68C91.8865 60.52 100.506 58.2 100.506 63.3C100.506 65.36 98.8665 67.12 95.2865 67.12Z" fill="#6C757D"/>
</svg>
