<svg width="123" height="72" viewBox="0 0 123 72" fill="none" xmlns="http://www.w3.org/2000/svg">
<g clip-path="url(#clip0_32_343)">
<path d="M74 13.7498V8.74978C74.002 8.41751 73.8715 8.09813 73.6375 7.86228L66.1375 0.362276C65.9016 0.128291 65.5823 -0.0020992 65.25 -0.000224195H45.25C43.1789 -0.000224195 41.5 1.67876 41.5 3.74978V36.2498C41.5 38.3209 43.1789 39.9998 45.25 39.9998H54V37.4998H45.25C44.5596 37.4998 44 36.9402 44 36.2498V3.74978C44 3.05939 44.5596 2.49978 45.25 2.49978H64V7.49978C64 8.88048 65.1193 9.99978 66.5 9.99978H71.5V13.7498H74Z" fill="#6C757D"/>
<path d="M52.75 22.5H55.25C55.9404 22.5 56.5 23.0596 56.5 23.75H59C59 21.6789 57.3211 20 55.25 20H52.75C50.6789 20 49 21.6789 49 23.75C49 25.8211 50.6789 27.5 52.75 27.5H55.25C55.9404 27.5 56.5 28.0596 56.5 28.75C56.5 29.4404 55.9404 30 55.25 30H52.75C52.0596 30 51.5 29.4404 51.5 28.75H49C49 30.8211 50.6789 32.5 52.75 32.5H55.25C57.3211 32.5 59 30.8211 59 28.75C59 26.6789 57.3211 25 55.25 25H52.75C52.0596 25 51.5 24.4404 51.5 23.75C51.5 23.0596 52.0597 22.5 52.75 22.5Z" fill="#6C757D"/>
<path d="M70.25 27.5V25C70.25 22.2386 68.0114 20 65.25 20C62.4886 20 60.25 22.2386 60.25 25V27.5C60.25 30.2614 62.4886 32.5 65.25 32.5H71.5V30H69.55C69.9994 29.2429 70.2409 28.3805 70.25 27.5ZM67.75 27.5C67.75 28.8807 66.6307 30 65.25 30C63.8693 30 62.75 28.8807 62.75 27.5V25C62.75 23.6193 63.8693 22.5 65.25 22.5C66.6307 22.5 67.75 23.6193 67.75 25V27.5Z" fill="#6C757D"/>
<path d="M75.25 30V20H72.75V31.25C72.75 31.9404 73.3096 32.5 74 32.5H81.5V30H75.25Z" fill="#6C757D"/>
</g>
<path d="M47.2103 67.12C45.1103 67.12 43.0503 66.38 42.0103 65.3L42.5903 64.16C43.5903 65.14 45.3703 65.86 47.2103 65.86C49.8303 65.86 50.9703 64.76 50.9703 63.38C50.9703 59.54 42.3503 61.9 42.3503 56.72C42.3503 54.66 43.9503 52.88 47.5103 52.88C49.0903 52.88 50.7303 53.34 51.8503 54.12L51.3503 55.3C50.1503 54.52 48.7503 54.14 47.5103 54.14C44.9503 54.14 43.8103 55.28 43.8103 56.68C43.8103 60.52 52.4303 58.2 52.4303 63.3C52.4303 65.36 50.7903 67.12 47.2103 67.12ZM69.035 67.32L69.755 68.18C68.895 69.22 67.715 69.78 66.355 69.78C64.715 69.78 63.355 69.04 61.515 67.12C57.415 67 54.415 64 54.415 60C54.415 55.92 57.535 52.88 61.775 52.88C65.975 52.88 69.115 55.9 69.115 60C69.115 63.58 66.735 66.32 63.335 66.98C64.395 68.1 65.375 68.6 66.375 68.6C67.435 68.6 68.295 68.18 69.035 67.32ZM55.875 60C55.875 63.32 58.395 65.8 61.775 65.8C65.135 65.8 67.635 63.32 67.635 60C67.635 56.68 65.135 54.2 61.775 54.2C58.395 54.2 55.875 56.68 55.875 60ZM72.4323 67V53H73.9123V65.72H81.7523V67H72.4323Z" fill="#6C757D"/>
<defs>
<clipPath id="clip0_32_343">
<rect width="40" height="40" fill="white" transform="translate(41.5)"/>
</clipPath>
</defs>
</svg>
