<svg width="123" height="72" viewBox="0 0 123 72" fill="none" xmlns="http://www.w3.org/2000/svg">
<path d="M79.738 16.1701L79.6531 16.0372C79.1693 15.285 78.8392 14.8213 78.4414 14.3298C77.2808 12.8942 75.8755 11.723 74.1537 10.7591C71.788 9.43444 68.7191 8.40499 64.8394 7.63366C64.1086 7.48835 62.5103 7.21436 61.2056 7.01085L61.0747 6.78069C60.3618 5.52264 59.574 3.96616 59.1167 2.9128C58.7626 2.0971 58.4226 1.15725 58.2339 0.476708C58.1219 0.0725671 58.1101 0.0463171 58.048 0.0390514C57.9143 0.0234264 55.7679 0.796708 54.3888 1.35702C52.5203 2.11616 51.0695 2.84358 50.1745 3.47171C49.8833 3.67624 49.5267 4.02327 49.4005 4.21515C49.3996 4.21202 49.3983 4.20921 49.3976 4.20593C49.3976 4.20593 49.3818 4.23132 49.3664 4.27686C49.3648 4.2803 49.3625 4.28429 49.3612 4.28757C49.3383 4.34796 49.3275 4.41866 49.3272 4.49116L49.3376 4.50108C49.3414 4.56843 49.3561 4.64507 49.3899 4.72952C49.4674 4.92319 49.7 5.15593 49.9564 5.40249C49.9564 5.40249 52.6426 8.02272 52.9718 8.40265C54.4601 10.1203 55.1067 11.8115 55.1663 14.1462C55.2046 15.6443 54.9156 16.9614 54.2139 18.4921C52.956 21.2358 50.3058 24.2613 46.2126 27.6254L46.2633 27.6084C46.238 27.629 46.2114 27.6506 46.1869 27.6699C45.6984 28.0593 44.972 28.7801 44.6008 29.2423C44.0484 29.9298 43.6166 30.663 43.4308 31.2266C43.0968 32.2409 43.2596 33.2683 43.9039 34.2167C44.727 35.4278 46.3656 36.6586 48.2713 37.4962C49.2433 37.9237 50.8838 38.4746 52.1138 38.7851C54.1637 39.3029 58.1255 39.8651 60.3073 39.9488C60.7498 39.9658 61.3389 39.9642 61.3659 39.9465C61.4138 39.9148 61.7534 39.2714 62.1475 38.4664C63.4886 35.7271 64.4587 33.1594 64.9805 30.9664C65.297 29.6383 65.5433 27.8673 65.7031 25.7675C65.7476 25.1798 65.7639 23.2182 65.7295 22.5515C65.6733 21.4662 65.5779 20.5822 65.4247 19.7142C65.4137 19.6519 65.4063 19.5933 65.4027 19.5484C70.2585 18.1055 75.6281 16.7996 79.1864 16.2546L79.738 16.1701ZM66.4615 8.93655C66.5173 8.93655 67.6183 9.23679 68.1879 9.40702C69.6059 9.83124 71.2422 10.4289 72.3033 10.9108L72.7451 11.1108L72.4337 11.1828C69.8366 11.7794 67.6109 12.468 65.467 13.338C65.289 13.4105 65.134 13.4697 65.123 13.4697C65.1121 13.4697 65.1691 13.3319 65.2484 13.1637C65.8928 11.7944 66.309 10.3576 66.417 9.13772C66.4267 9.02663 66.4466 8.93655 66.4615 8.93655ZM65.8692 9.66249C65.6495 10.5626 65.0675 11.8988 64.3491 13.1547C64.2223 13.376 64.1093 13.5605 64.0962 13.5645C64.0829 13.5685 63.9193 13.4824 63.733 13.3735C63.0306 12.9627 62.2351 12.574 61.3616 12.2137C61.1178 12.1133 60.9105 12.0237 60.8998 12.0138C60.8599 11.9764 62.8014 10.6912 63.8303 10.0737C64.6537 9.57968 65.9788 8.84132 66.002 8.86444C66.0215 8.88358 65.9399 9.37327 65.8692 9.66249ZM57.468 27.1491C56.3253 27.5826 55.0808 28.0166 53.6519 28.4784C53.1075 28.6544 52.6466 28.8032 52.6287 28.8097C52.5744 28.8299 52.591 28.7966 52.7502 28.5479C53.4601 27.4394 54.5356 25.2713 55.1368 23.7378C55.2412 23.4719 55.3403 23.2053 55.3582 23.1459C55.3641 23.1258 55.3702 23.1091 55.3771 23.0943C55.4601 23.0596 55.5441 23.0248 55.6277 22.9901C55.6462 23.026 55.6787 23.1044 55.7098 23.189C55.9023 23.712 56.3352 24.4892 56.7116 24.9864C57.1221 25.529 57.6574 26.1073 58.1054 26.4914C58.2491 26.6149 58.3833 26.7301 58.4025 26.7469C58.4408 26.7811 58.454 26.7751 57.468 27.1491ZM58.2926 27.6778C58.2967 27.6819 58.2495 27.8087 58.1876 27.9583C57.6607 29.2324 56.9705 30.6219 56.0906 32.183C55.8666 32.5801 55.6778 32.9046 55.6706 32.9037C55.6635 32.9031 55.4814 32.7957 55.2659 32.6636C53.9839 31.8791 52.8498 30.9129 52.1051 29.9733L51.9989 29.8406L52.5516 29.689C54.5231 29.1487 56.1951 28.571 57.8574 27.8551C58.0928 27.7535 58.2884 27.6737 58.2926 27.6778ZM55.5483 11.7698C55.5241 11.6015 55.5092 11.4583 55.5155 11.4523C55.533 11.4348 56.3711 11.6312 56.8284 11.7596C57.5153 11.9526 58.9776 12.4419 58.9785 12.4793C58.9785 12.4866 58.8173 12.6271 58.6206 12.7917C57.8301 13.453 57.0677 14.1445 56.1541 15.0266C55.8834 15.2882 55.6532 15.501 55.6419 15.501C55.6306 15.501 55.6255 15.4629 55.6319 15.4162C55.7693 14.4008 55.7399 13.097 55.5483 11.7698ZM55.7734 10.4113C55.7734 10.3739 56.5208 9.62663 56.8423 9.34257C57.4559 8.80007 59.1072 7.51561 59.1658 7.53522C59.2001 7.54663 59.2652 7.74983 59.3807 8.20679C59.6017 9.08163 59.7047 10.064 59.6704 10.973C59.6608 11.2258 59.6448 11.4608 59.6349 11.4953L59.6158 11.5585L59.3036 11.4573C58.6596 11.2516 57.6073 10.9417 56.7055 10.6923C56.1933 10.5504 55.7734 10.4237 55.7734 10.4113ZM57.6011 14.5371C58.1708 14.0553 59.37 13.0959 59.3845 13.1105C59.4008 13.1268 59.1973 13.8747 59.0683 14.2741C58.8209 15.0401 58.4027 16.003 58.0008 16.7278C57.9064 16.898 57.7615 17.1473 57.6794 17.2819L57.5303 17.5259L57.1913 17.1983C56.7975 16.8165 56.4766 16.5793 56.0669 16.3687C55.9058 16.2858 55.7749 16.2091 55.7748 16.1978C55.7739 16.1481 56.8053 15.2102 57.6011 14.5371ZM57.3141 18.873C57.318 18.8705 57.3215 18.8695 57.3254 18.8691C57.353 18.8657 57.3922 18.917 57.5558 19.1613C57.9002 19.6762 58.1641 20.363 58.2324 20.9219L58.2462 21.0422L57.4204 21.3623C55.9378 21.9375 54.573 22.5048 53.6512 22.9269C53.3933 23.045 52.938 23.2623 52.6406 23.4113C52.3432 23.5597 52.1004 23.6766 52.1004 23.6704C52.1004 23.6642 52.2873 23.5234 52.5154 23.3578C54.3246 22.0445 55.8845 20.6066 57.0598 19.1689C57.1855 19.0151 57.2997 18.8819 57.3141 18.873ZM57.697 25.1229C57.2273 24.5778 56.8558 24.037 56.5851 23.5039C56.4705 23.2783 56.2997 22.8698 56.2575 22.7312C57.1141 22.383 58.0055 22.0344 58.9393 21.6833C59.1409 21.6076 59.3483 21.5313 59.5588 21.4547C59.5806 21.7023 59.5554 22.8318 59.5158 23.1637C59.4098 24.0474 59.237 24.8648 58.9604 25.7943C58.8944 26.0163 58.8324 26.2081 58.8226 26.2193C58.7986 26.2473 57.9717 25.4417 57.697 25.1229ZM58.6648 20.8638C58.6494 20.8691 58.6398 20.7812 58.6396 20.6423C58.6381 19.9109 58.453 19.129 58.1261 18.4669C57.9879 18.1873 57.9648 18.1196 57.9933 18.0938C58.1071 17.9907 59.8681 16.9866 60.9783 16.3914C61.7408 15.9826 62.9118 15.3877 62.926 15.4023C62.9403 15.4169 62.1079 16.5829 61.613 17.2414C61.0212 18.0292 59.9669 19.3462 59.2416 20.2037C58.9385 20.5616 58.679 20.8591 58.6648 20.8638ZM62.3959 14.7307C61.2603 15.2988 60.2877 15.8354 59.2721 16.4559C58.9824 16.6329 58.7397 16.7784 58.7318 16.7784C58.7066 16.7784 58.7165 16.7565 58.8786 16.4596C59.4196 15.469 59.8556 14.2864 60.1068 13.1306C60.1292 13.0275 60.1561 12.9645 60.1751 12.9687C60.2591 12.9875 61.0438 13.3526 61.636 13.6492C62.1775 13.9204 62.998 14.357 63.0389 14.3955C63.0436 14.4003 62.755 14.5512 62.3959 14.7307ZM63.2119 8.22311C64.0529 8.38421 65.2699 8.63897 65.3429 8.66975C65.3785 8.68444 65.2526 8.75296 64.8484 8.93522C63.2501 9.656 62.0664 10.2991 60.8897 11.0868C60.5796 11.2943 60.3219 11.4637 60.3166 11.4637C60.3115 11.4637 60.3067 11.2905 60.3066 11.0791C60.3058 9.93155 60.0767 8.77311 59.6565 7.79444C59.6113 7.68921 59.5772 7.59882 59.5818 7.59468C59.6005 7.57718 62.0836 8.00718 63.2119 8.22311ZM59.123 4.69124C59.1486 4.69319 59.1756 4.74499 59.2508 4.90999C59.457 5.36163 60.0988 6.58569 60.2539 6.82241C60.2669 6.84218 60.2816 6.8571 60.2827 6.86647C58.9582 6.65835 57.8599 6.48179 56.8282 6.31046C56.8366 6.2989 56.892 6.2628 56.9616 6.22405C57.5955 5.87155 58.2351 5.4278 58.8044 4.9478C58.9405 4.83311 59.0714 4.72382 59.0954 4.70382C59.1051 4.69569 59.1145 4.69054 59.123 4.69124ZM54.676 1.71382C55.5101 1.32585 57.7814 0.380145 57.9468 0.350458C57.9521 0.349364 57.9548 0.349364 57.9557 0.350458C57.9598 0.355458 57.9844 0.524286 58.0088 0.724755C58.1119 1.56952 58.3011 2.38897 58.597 3.27093C58.8198 3.93546 58.8231 3.89639 58.5577 3.82233C57.941 3.65015 55.1776 3.17593 53.1785 2.89897C52.8564 2.85444 52.5882 2.81483 52.5839 2.81054C52.5587 2.78507 54.0256 2.01647 54.676 1.71382ZM52.3563 3.13554C53.6398 3.57233 56.8568 4.18694 58.6348 4.33468C58.8355 4.35124 59.0041 4.36905 59.0092 4.37382C59.0144 4.37843 58.8441 4.46952 58.6312 4.57608C57.7733 5.00577 56.8292 5.52952 56.176 5.93835C56.0249 6.03304 55.8847 6.11249 55.8204 6.14124C55.6241 6.10788 55.4278 6.07436 55.2312 6.04046L54.6545 5.48046C53.5887 4.4489 52.7567 3.65085 52.4348 3.34929L52.1223 3.05585L52.3563 3.13554ZM50.4163 4.99108L50.4173 4.92265C50.4215 4.51507 50.9353 3.91382 51.8073 3.29858L51.8845 3.24546L52.7345 4.30663C53.2023 4.89022 53.6714 5.46952 53.7754 5.59421C53.8635 5.69975 53.9342 5.791 53.9508 5.8189C53.3594 5.71608 52.7028 5.59882 52.2143 5.49358C52.1686 5.48335 52.1247 5.47358 52.0831 5.4639C51.9134 5.42515 51.7698 5.39147 51.6426 5.36077C51.3108 5.27835 50.9295 5.17436 50.6042 5.06225C50.5443 5.0389 50.481 5.0153 50.4163 4.99108ZM54.5137 9.71061C54.508 9.71624 54.4404 9.61132 54.3645 9.47788C53.6583 8.23593 52.54 6.97311 51.2466 5.95655C51.0855 5.82991 50.9545 5.72233 50.9545 5.71757C50.9583 5.71421 51.0591 5.7453 51.1822 5.78702C51.409 5.86405 51.708 5.95413 52.0561 6.05132C52.3001 6.1196 52.5682 6.19116 52.853 6.2639C53.2165 6.35679 53.517 6.43663 53.5208 6.441C53.5611 6.48624 54.1716 8.43444 54.3796 9.18186C54.4591 9.46718 54.5193 9.70499 54.5137 9.71061ZM55.1233 9.77632C54.9038 8.93491 54.45 7.69233 54.0431 6.81796C53.9778 6.67725 53.9243 6.55319 53.9243 6.54218C53.9243 6.54069 53.9262 6.53999 53.9307 6.53968C53.9619 6.53749 54.0958 6.55999 54.2558 6.5953C55.2855 6.82304 57.1244 7.17796 58.3071 7.37686C58.5039 7.41015 58.6662 7.44569 58.6662 7.45655C58.6662 7.46741 58.5926 7.51397 58.503 7.55913C58.3047 7.65882 57.5018 8.13944 57.2331 8.31921C56.5626 8.76804 55.9597 9.2485 55.5206 9.68522C55.3441 9.86069 55.1965 10.0039 55.1917 10.0039C55.1869 10.0041 55.156 9.90179 55.1233 9.77632ZM53.8498 20.2402C54.2488 19.6296 54.4495 19.2841 54.6592 18.8425C54.8455 18.4501 55.0312 17.9844 55.1637 17.579C55.219 17.4107 55.2766 17.273 55.2917 17.273C55.3067 17.273 55.448 17.3439 55.6053 17.431C55.9908 17.6446 56.3369 17.8794 56.6423 18.1342C56.6542 18.144 56.4959 18.2733 56.2908 18.4212C55.718 18.8346 54.8457 19.493 54.3405 19.8949C53.8075 20.3189 53.7897 20.332 53.8498 20.2402ZM51.778 22.9215C52.174 22.4901 52.4772 22.1319 52.8213 21.6848C53.0481 21.3903 53.0913 21.3487 53.4235 21.109C54.318 20.4634 56.3631 19.078 56.3869 19.1018C56.4108 19.1257 55.7194 19.9077 55.2537 20.3832C54.088 21.5726 52.9326 22.5053 51.5011 23.4137C51.3219 23.527 51.1582 23.6301 51.1369 23.6425C51.0974 23.6654 51.1494 23.6066 51.778 22.9215ZM50.8404 25.4681C50.8819 25.2683 50.9008 25.1769 50.9354 25.1211C52.0187 24.5803 53.158 24.0501 54.3703 23.5241C54.3002 23.6987 54.0475 24.2253 53.7975 24.7133C53.2126 25.8538 52.5678 26.9768 51.7117 28.3467C51.564 28.5836 51.428 28.7997 51.4095 28.8264C51.379 28.8704 51.3665 28.8561 51.2728 28.6697C51.0678 28.2618 50.8961 27.7476 50.8073 27.2691C50.7195 26.7958 50.7345 25.9763 50.8404 25.4681ZM44.4276 31.1307C44.5654 30.2441 45.2417 29.0798 46.187 28.1026C46.7305 27.541 47.1808 27.177 47.8459 26.7728C48.1388 26.6048 48.5003 26.4041 48.9612 26.1521C49.249 25.9944 49.5415 25.8389 49.8368 25.6837C49.8442 25.7056 49.8338 25.7731 49.8044 25.9426C49.7776 26.0972 49.7472 26.39 49.7361 26.5912C49.6875 27.4751 49.8309 28.1276 50.2699 29.02C50.3919 29.2682 50.4873 29.4748 50.4823 29.4789C50.4383 29.5158 46.4408 30.6855 45.1839 31.0297C44.8113 31.1318 44.4858 31.2214 44.4592 31.2298C44.4156 31.2426 44.4118 31.2331 44.4276 31.1307ZM46.8726 35.4273L46.6019 35.1995C46.2844 34.933 45.7285 34.3666 45.4763 34.0525C44.9574 33.4054 44.6057 32.7248 44.4669 32.0993C44.403 31.8108 44.401 31.6638 44.4619 31.6457C44.5499 31.619 46.1644 31.2391 47.6783 30.8879C48.5193 30.6929 49.4916 30.4645 49.8399 30.3805C50.1881 30.2969 50.4765 30.2309 50.4799 30.2339C50.4948 30.2482 49.7248 31.3501 48.6498 32.8544C48.276 33.3775 47.8372 33.9941 47.6747 34.2247C47.5121 34.455 47.2663 34.8195 47.127 35.0351L46.8726 35.4273ZM47.2874 35.7433L47.1761 35.6638L47.3506 35.412C47.917 34.5916 48.6287 33.6891 50.1863 31.8149L51.254 30.5298L51.4487 30.7474C52.3194 31.7176 53.2051 32.4412 54.2856 33.0658C54.4765 33.1762 54.6218 33.2719 54.6094 33.2795C54.5644 33.3074 50.873 34.6201 49.1656 35.2149C48.2026 35.5503 47.4119 35.8237 47.4074 35.8231C47.4032 35.8223 47.3487 35.7866 47.2874 35.7433ZM52.4518 38.1315L52.362 38.1074C52.1452 38.0486 50.6168 37.509 50.213 37.3487C49.7126 37.1498 49.191 36.9099 48.8066 36.7022C48.326 36.4427 47.7166 36.0574 47.7644 36.0419C47.778 36.0378 48.6051 35.8113 49.6008 35.5397C52.2501 34.8178 53.7155 34.4028 54.6766 34.103C54.8562 34.0471 55.0059 34.0047 55.0091 34.008C55.017 34.016 54.5882 34.7026 53.8342 35.8899C53.5157 36.3916 53.1548 36.9627 53.0309 37.1587C52.9073 37.3551 52.7261 37.6532 52.6287 37.823L52.4518 38.1315ZM52.9349 38.2428C52.9349 38.2298 53.0799 38.0462 53.2561 37.8355C54.126 36.7954 54.9898 35.6333 55.7112 34.5343C55.9084 34.2339 56.0736 33.983 56.0779 33.9777C56.0822 33.9724 56.352 34.0683 56.6787 34.1903C57.466 34.4848 58.0837 34.6766 58.92 34.8861C59.9468 35.1431 61.431 35.4002 62.3098 35.4741C62.4446 35.4854 62.5133 35.5009 62.492 35.5145C62.4511 35.5403 61.5611 35.8378 60.907 36.0432C59.8686 36.3698 56.695 37.3072 54.1073 38.0516C53.6273 38.19 53.2169 38.3066 53.1954 38.3111C53.1375 38.3232 52.9349 38.2701 52.9349 38.2428ZM61.2282 39.4129C61.148 39.6055 61.1182 39.6522 61.0766 39.6504C60.975 39.6462 59.5529 39.4473 58.6923 39.3167C57.1856 39.0878 54.662 38.647 54.025 38.5021L53.8769 38.4689L54.7801 38.2652C56.7158 37.8295 57.6454 37.5956 58.5885 37.3067C59.778 36.9425 60.9557 36.4886 62.1453 35.9356C62.3334 35.8483 62.4937 35.7812 62.5336 35.7723C62.5392 35.7711 62.5419 35.7711 62.5424 35.7723C62.5674 35.8353 61.5866 38.5515 61.2282 39.4129ZM63.7086 32.0453C63.4954 32.8001 63.3167 33.3906 62.9848 34.4369C62.8388 34.8991 62.713 35.2761 62.7058 35.2744C62.698 35.2723 62.663 35.2655 62.6271 35.259C60.8312 34.9342 59.2226 34.4806 57.7158 33.8757C57.2943 33.7058 56.6855 33.4363 56.6533 33.4049C56.6424 33.3942 57.0065 33.2226 57.4616 33.0244C60.2136 31.8233 63.0649 30.4561 64.0398 29.8695C64.1573 29.7994 64.2439 29.7581 64.2635 29.7623C64.2665 29.763 64.2677 29.765 64.2677 29.7673C64.2678 29.9015 63.9626 31.1452 63.7086 32.0453ZM64.1603 29.4764C63.3577 29.9216 60.7148 31.0212 58.0157 32.034C57.6216 32.1819 57.2371 32.3266 57.1618 32.3563C57.0867 32.3861 57.0252 32.4066 57.0252 32.4005C57.0252 32.3945 57.1366 32.1803 57.273 31.9247C58.0309 30.5081 58.7873 28.7865 59.1755 27.5917C59.215 27.4696 59.2501 27.3673 59.2539 27.3628C59.2576 27.358 59.4058 27.4376 59.5828 27.5398C60.8739 28.2866 62.6755 28.9871 64.2119 29.3386L64.3508 29.37L64.1603 29.4764ZM64.5735 23.4101C64.798 23.508 64.8237 23.4701 64.3069 23.8216C63.2051 24.5695 61.8348 25.3051 60.1533 26.0526C59.8601 26.1826 59.6117 26.2889 59.6017 26.2889C59.5917 26.2889 59.6244 26.1405 59.6738 25.9576C60.0812 24.4502 60.3112 22.9292 60.3175 21.7092C60.3191 21.4106 60.32 21.2591 60.3274 21.1802C60.3819 21.1612 60.4359 21.1423 60.4908 21.123C60.574 21.1642 60.7063 21.2432 60.9133 21.3726C62.1608 22.1538 63.8498 23.0942 64.5735 23.4101ZM61.1308 20.9024C62.189 20.5426 63.3205 20.1796 64.4921 19.8223C64.5783 20.1739 64.7344 21.7403 64.7786 22.779C64.7893 23.0289 64.7872 23.1889 64.7723 23.1889C64.7243 23.1889 63.7483 22.6154 63.056 22.1808C62.4587 21.8059 61.3339 21.0585 61.1308 20.9024ZM64.8151 24.1439C64.814 25.4922 64.6701 27.3386 64.4614 28.6856C64.4245 28.9222 64.3928 29.1172 64.3905 29.1196C64.3878 29.1219 64.2173 29.0722 64.0119 29.0083C63.1048 28.7266 62.1211 28.3057 61.2333 27.8194C60.6456 27.4973 59.7955 26.9758 59.8192 26.9518C59.8257 26.9452 60.0762 26.8126 60.3758 26.657C61.5627 26.0411 62.6964 25.377 63.6822 24.7181C64.0517 24.4712 64.6051 24.071 64.728 23.963L64.8152 23.8873V24.1439H64.8151ZM67.2973 18.0533C64.5287 18.8215 62.39 19.5051 59.8942 20.4223C59.6173 20.5242 59.3781 20.6085 59.3617 20.6085C59.3274 20.6085 59.2931 20.6399 59.9158 20.0669C61.512 18.598 62.9222 16.9794 63.9757 15.4048L64.1883 15.0862L64.483 15.277C65.1589 15.7161 65.9598 16.3065 66.5701 16.8151C66.9121 17.1001 67.577 17.6955 67.7136 17.8397L67.7866 17.9167L67.2973 18.0533ZM68.3951 17.7423C68.3891 17.7423 68.312 17.6333 68.223 17.5007C67.5443 16.4867 66.739 15.596 65.7781 14.7965C65.5988 14.6473 65.3963 14.4837 65.3293 14.4335C65.2616 14.3833 65.207 14.337 65.2064 14.3299C65.2058 14.3133 66.232 13.8732 67.0154 13.5545C68.3787 12.9996 70.2424 12.3353 71.6366 11.9076C72.3722 11.6822 73.1534 11.4576 73.1648 11.4687C73.1773 11.4814 72.7758 12.1087 72.5259 12.4667C72.1614 12.989 71.633 13.6745 70.4291 15.1886C69.7965 15.9838 69.0831 16.8837 68.8426 17.1883C68.6023 17.4926 68.401 17.7423 68.3951 17.7423ZM78.505 15.9802C75.9595 16.1717 72.7055 16.7131 69.5726 17.4666C69.3598 17.5176 69.1758 17.5601 69.1639 17.5601C69.1524 17.5601 69.3854 17.3263 69.6816 17.0415C71.5215 15.2727 72.3603 14.1558 73.3483 12.1606C73.4952 11.8633 73.6201 11.607 73.6249 11.5914C73.6255 11.5904 73.6262 11.5904 73.6279 11.5902C73.6498 11.5856 73.7958 11.6564 73.9716 11.757C75.4404 12.5984 76.8798 13.679 78.0116 14.7901C78.3334 15.1061 79.1212 15.9255 79.1094 15.9323C79.1063 15.9341 78.8344 15.9555 78.505 15.9802Z" fill="#6C757D"/>
<path d="M12.9232 67.12C10.8232 67.12 8.7632 66.38 7.7232 65.3L8.3032 64.16C9.3032 65.14 11.0832 65.86 12.9232 65.86C15.5432 65.86 16.6832 64.76 16.6832 63.38C16.6832 59.54 8.0632 61.9 8.0632 56.72C8.0632 54.66 9.6632 52.88 13.2232 52.88C14.8032 52.88 16.4432 53.34 17.5632 54.12L17.0632 55.3C15.8632 54.52 14.4632 54.14 13.2232 54.14C10.6632 54.14 9.5232 55.28 9.5232 56.68C9.5232 60.52 18.1432 58.2 18.1432 63.3C18.1432 65.36 16.5032 67.12 12.9232 67.12ZM34.7479 67.32L35.4679 68.18C34.6079 69.22 33.4279 69.78 32.0679 69.78C30.4279 69.78 29.0679 69.04 27.2279 67.12C23.1279 67 20.1279 64 20.1279 60C20.1279 55.92 23.2479 52.88 27.4879 52.88C31.6879 52.88 34.8279 55.9 34.8279 60C34.8279 63.58 32.4479 66.32 29.0479 66.98C30.1079 68.1 31.0879 68.6 32.0879 68.6C33.1479 68.6 34.0079 68.18 34.7479 67.32ZM21.5879 60C21.5879 63.32 24.1079 65.8 27.4879 65.8C30.8479 65.8 33.3479 63.32 33.3479 60C33.3479 56.68 30.8479 54.2 27.4879 54.2C24.1079 54.2 21.5879 56.68 21.5879 60ZM38.1452 67V53H39.6252V65.72H47.4652V67H38.1452ZM59.017 67.12C56.917 67.12 54.857 66.38 53.817 65.3L54.397 64.16C55.397 65.14 57.177 65.86 59.017 65.86C61.637 65.86 62.777 64.76 62.777 63.38C62.777 59.54 54.157 61.9 54.157 56.72C54.157 54.66 55.757 52.88 59.317 52.88C60.897 52.88 62.537 53.34 63.657 54.12L63.157 55.3C61.957 54.52 60.557 54.14 59.317 54.14C56.757 54.14 55.617 55.28 55.617 56.68C55.617 60.52 64.237 58.2 64.237 63.3C64.237 65.36 62.597 67.12 59.017 67.12ZM76.3416 61.74C76.3416 61.86 76.3216 62.02 76.3216 62.18H67.5216C67.6816 64.38 69.3616 65.84 71.6616 65.84C72.9416 65.84 74.0816 65.38 74.8816 64.46L75.6816 65.38C74.7416 66.5 73.2816 67.1 71.6216 67.1C68.3416 67.1 66.1016 64.86 66.1016 61.74C66.1016 58.62 68.2816 56.4 71.2416 56.4C74.2016 56.4 76.3416 58.58 76.3416 61.74ZM71.2416 57.62C69.2016 57.62 67.7016 59.06 67.5216 61.12H74.9816C74.8016 59.06 73.3016 57.62 71.2416 57.62ZM80.592 58.54C81.252 57.14 82.592 56.4 84.532 56.4V57.78C84.412 57.78 84.292 57.76 84.192 57.76C81.992 57.76 80.652 59.16 80.652 61.64V67H79.232V56.48H80.592V58.54ZM94.9923 56.48H96.3923L91.7123 67H90.2523L85.5923 56.48H87.0723L91.0123 65.44L94.9923 56.48ZM107.279 61.74C107.279 61.86 107.259 62.02 107.259 62.18H98.4591C98.6191 64.38 100.299 65.84 102.599 65.84C103.879 65.84 105.019 65.38 105.819 64.46L106.619 65.38C105.679 66.5 104.219 67.1 102.559 67.1C99.2791 67.1 97.0391 64.86 97.0391 61.74C97.0391 58.62 99.2191 56.4 102.179 56.4C105.139 56.4 107.279 58.58 107.279 61.74ZM102.179 57.62C100.139 57.62 98.6391 59.06 98.4591 61.12H105.919C105.739 59.06 104.239 57.62 102.179 57.62ZM111.529 58.54C112.189 57.14 113.529 56.4 115.469 56.4V57.78C115.349 57.78 115.229 57.76 115.129 57.76C112.929 57.76 111.589 59.16 111.589 61.64V67H110.169V56.48H111.529V58.54Z" fill="#6C757D"/>
</svg>
