<svg width="123" height="72" viewBox="0 0 123 72" fill="none" xmlns="http://www.w3.org/2000/svg">
<g clip-path="url(#clip0_32_296)">
<path fill-rule="evenodd" clip-rule="evenodd" d="M45.4062 0H77.5938C79.7511 0 81.5 1.74889 81.5 3.90625V36.0938C81.5 38.2511 79.7511 40 77.5938 40H45.4062C43.2489 40 41.5 38.2511 41.5 36.0938V3.90625C41.5 1.74889 43.2489 0 45.4062 0ZM66.2609 35.741V31.83C66.97 32.4248 67.7403 32.8709 68.5717 33.1683C69.4032 33.4657 70.2427 33.6144 71.0905 33.6144C71.5877 33.6144 72.0217 33.5696 72.3927 33.4799C72.7635 33.3903 73.0733 33.2661 73.3219 33.1072C73.5705 32.9483 73.7559 32.7609 73.8782 32.545C74.0005 32.3291 74.0616 32.0948 74.0616 31.8423C74.0616 31.5 73.9638 31.1945 73.7682 30.9256C73.5725 30.6567 73.3055 30.4082 72.9673 30.1801C72.6291 29.952 72.2276 29.732 71.763 29.5201C71.2984 29.3082 70.797 29.0923 70.2591 28.8723C68.8896 28.302 67.8687 27.6053 67.1962 26.7824C66.5237 25.9595 66.1875 24.9654 66.1875 23.8002C66.1875 22.8877 66.3709 22.1034 66.7377 21.4476C67.1045 20.7916 67.6037 20.2519 68.2355 19.8281C68.8673 19.4045 69.5988 19.0928 70.4302 18.8932C71.2616 18.6936 72.142 18.5938 73.0713 18.5938C73.9841 18.5938 74.7932 18.6488 75.4983 18.7588C76.2034 18.8687 76.8534 19.0378 77.4484 19.2659V22.9203C77.155 22.7166 76.8351 22.5373 76.4887 22.3825C76.1422 22.2277 75.7856 22.0994 75.4188 21.9975C75.052 21.8957 74.6872 21.8203 74.3245 21.7714C73.9617 21.7226 73.6173 21.6981 73.2913 21.6981C72.843 21.6981 72.4355 21.7409 72.0686 21.8264C71.7018 21.912 71.3921 22.0322 71.1394 22.187C70.8867 22.3418 70.6911 22.5271 70.5525 22.743C70.4139 22.959 70.3446 23.2014 70.3446 23.4702C70.3446 23.7636 70.4221 24.0263 70.577 24.2586C70.7318 24.4908 70.9519 24.7108 71.2372 24.9186C71.5225 25.1263 71.8689 25.33 72.2765 25.5297C72.6841 25.7293 73.1446 25.935 73.6581 26.1469C74.3591 26.4402 74.9888 26.7518 75.5472 27.0818C76.1055 27.4118 76.5845 27.7846 76.9838 28.2002C77.3833 28.6157 77.6889 29.0903 77.9009 29.624C78.1128 30.1577 78.2188 30.7789 78.2188 31.4878C78.2188 32.4655 78.0333 33.2864 77.6624 33.9505C77.2916 34.6145 76.7882 35.1523 76.1524 35.5638C75.5166 35.9752 74.7769 36.2706 73.9332 36.4498C73.0895 36.6291 72.1991 36.7188 71.2616 36.7188C70.2998 36.7188 69.3848 36.6373 68.5167 36.4743C67.6486 36.3113 66.8966 36.067 66.2609 35.741ZM64.7031 22.1939H59.6859V36.4844H55.7114V22.1939H50.7188V18.9844H64.7031V22.1939Z" fill="#6C757D"/>
</g>
<path d="M14.8789 67V54.28H9.95891V53H21.2789V54.28H16.3589V67H14.8789ZM30.0997 56.48H31.4997L26.2397 68.26C25.3597 70.32 24.2397 70.98 22.7397 70.98C21.7597 70.98 20.8197 70.66 20.1797 70.02L20.8397 68.96C21.3597 69.48 21.9997 69.76 22.7597 69.76C23.6997 69.76 24.3397 69.32 24.9397 68L25.3997 66.98L20.6997 56.48H22.1797L26.1397 65.42L30.0997 56.48ZM38.9195 56.4C41.9195 56.4 44.1595 58.56 44.1595 61.74C44.1595 64.94 41.9195 67.1 38.9195 67.1C37.2395 67.1 35.7995 66.38 34.9195 65.02V70.88H33.4995V56.48H34.8595V58.56C35.7195 57.16 37.1795 56.4 38.9195 56.4ZM38.8195 65.84C41.0395 65.84 42.7395 64.2 42.7395 61.74C42.7395 59.3 41.0395 57.64 38.8195 57.64C36.5795 57.64 34.8995 59.3 34.8995 61.74C34.8995 64.2 36.5795 65.84 38.8195 65.84ZM56.2342 61.74C56.2342 61.86 56.2142 62.02 56.2142 62.18H47.4142C47.5742 64.38 49.2542 65.84 51.5542 65.84C52.8342 65.84 53.9742 65.38 54.7742 64.46L55.5742 65.38C54.6342 66.5 53.1742 67.1 51.5142 67.1C48.2342 67.1 45.9942 64.86 45.9942 61.74C45.9942 58.62 48.1742 56.4 51.1342 56.4C54.0942 56.4 56.2342 58.58 56.2342 61.74ZM51.1342 57.62C49.0942 57.62 47.5942 59.06 47.4142 61.12H54.8742C54.6942 59.06 53.1942 57.62 51.1342 57.62ZM61.9445 67.1C60.2045 67.1 58.5245 66.54 57.6645 65.8L58.3045 64.68C59.1445 65.34 60.5645 65.86 62.0445 65.86C64.0445 65.86 64.8645 65.18 64.8645 64.14C64.8645 61.4 58.0445 63.56 58.0445 59.4C58.0445 57.68 59.5245 56.4 62.2045 56.4C63.5645 56.4 65.0445 56.78 65.9245 57.38L65.3045 58.52C64.3845 57.88 63.2845 57.62 62.2045 57.62C60.3045 57.62 59.4645 58.36 59.4645 59.36C59.4645 62.2 66.2845 60.06 66.2845 64.1C66.2845 65.92 64.6845 67.1 61.9445 67.1ZM73.2697 67.1C70.1297 67.1 67.8497 64.88 67.8497 61.74C67.8497 58.6 70.1297 56.4 73.2697 56.4C75.0497 56.4 76.5497 57.1 77.3897 58.48L76.3297 59.2C75.6097 58.14 74.4897 57.64 73.2697 57.64C70.9697 57.64 69.2897 59.28 69.2897 61.74C69.2897 64.22 70.9697 65.84 73.2697 65.84C74.4897 65.84 75.6097 65.36 76.3297 64.3L77.3897 65.02C76.5497 66.38 75.0497 67.1 73.2697 67.1ZM81.5392 58.54C82.1992 57.14 83.5392 56.4 85.4792 56.4V57.78C85.3592 57.78 85.2392 57.76 85.1392 57.76C82.9392 57.76 81.5992 59.16 81.5992 61.64V67H80.1792V56.48H81.5392V58.54ZM88.7703 54.18C88.1903 54.18 87.7303 53.72 87.7303 53.16C87.7303 52.62 88.1903 52.16 88.7703 52.16C89.3503 52.16 89.8103 52.6 89.8103 53.14C89.8103 53.72 89.3703 54.18 88.7703 54.18ZM88.0503 67V56.48H89.4703V67H88.0503ZM98.8414 56.4C101.841 56.4 104.081 58.56 104.081 61.74C104.081 64.94 101.841 67.1 98.8414 67.1C97.1614 67.1 95.7214 66.38 94.8414 65.02V70.88H93.4214V56.48H94.7814V58.56C95.6414 57.16 97.1014 56.4 98.8414 56.4ZM98.7414 65.84C100.961 65.84 102.661 64.2 102.661 61.74C102.661 59.3 100.961 57.64 98.7414 57.64C96.5014 57.64 94.8214 59.3 94.8214 61.74C94.8214 64.2 96.5014 65.84 98.7414 65.84ZM112.016 65.34L112.516 66.36C111.956 66.86 111.116 67.1 110.296 67.1C108.316 67.1 107.216 65.98 107.216 64.04V57.68H105.336V56.48H107.216V54.18H108.636V56.48H111.836V57.68H108.636V63.96C108.636 65.2 109.276 65.88 110.456 65.88C111.036 65.88 111.616 65.7 112.016 65.34Z" fill="#6C757D"/>
<defs>
<clipPath id="clip0_32_296">
<rect width="40" height="40" fill="white" transform="translate(41.5)"/>
</clipPath>
</defs>
</svg>
