<svg width="123" height="72" viewBox="0 0 123 72" fill="none" xmlns="http://www.w3.org/2000/svg">
<svg x="49" y="3" width="25" height="25" viewBox="41.5 0 40 40">
<path fill-rule="evenodd" clip-rule="evenodd" d="M41.5 0H81.5V40H41.5V0ZM72.0778 33.5327C70.2238 33.5327 69.1756 32.5657 68.3698 31.2502L65.3152 33.0248C66.4187 35.2051 68.674 36.8686 72.1648 36.8686C75.7349 36.8686 78.3933 35.0146 78.3933 31.6305C78.3933 28.4914 76.5902 27.0952 73.3965 25.7257L72.4568 25.3232C70.8441 24.6248 70.1457 24.1683 70.1457 23.0406C70.1457 22.1283 70.8435 21.4298 71.9444 21.4298C73.0238 21.4298 73.719 21.8851 74.3635 23.0406L77.2905 21.1613C76.0524 18.9835 74.3343 18.1517 71.9444 18.1517C68.5876 18.1517 66.4397 20.2978 66.4397 23.1168C66.4397 26.1771 68.2416 27.6248 70.954 28.7803L71.8937 29.1835C73.6079 29.9333 74.6302 30.3898 74.6302 31.6787C74.6302 32.7543 73.6352 33.5327 72.0778 33.5327ZM57.5108 33.5092C56.2194 33.5092 55.6822 32.6235 55.0917 31.5759L52.0321 33.4282C52.9184 35.3041 54.6613 36.8616 57.6708 36.8616C61.0016 36.8616 63.2835 35.0902 63.2835 31.1981V18.3663H59.5248V31.1473C59.5248 33.026 58.7457 33.5092 57.5108 33.5092Z" fill="#6C757D"/>
</svg>
<text x="61.5" y="67" text-anchor="middle" font-family="Arial, sans-serif" font-size="18" font-weight="400" fill="#6C757D">Javascript</text>
</svg>
