<svg width="123" height="72" viewBox="0 0 123 72" fill="none" xmlns="http://www.w3.org/2000/svg">
<svg x="49" y="3" width="25" height="25" viewBox="0 0 24 24">
<path d="M12 0C5.372 0 0 5.372 0 12s5.372 12 12 12 12-5.372 12-12S18.628 0 12 0zm5.696 14.943c-4.103 4.103-11.433 2.794-11.433 2.794S4.94 10.421 9.057 6.304c2.281-2.281 6.061-2.187 8.45.189s2.471 6.168.189 8.45zm-4.319-7.91l-1.174 2.416-2.416 1.174 2.416 1.174 1.174 2.416 1.174-2.416 2.416-1.174-2.416-1.174-1.174-2.416z" fill="#6C757D"/>
</svg>
<text x="61.5" y="67" text-anchor="middle" font-family="Arial, sans-serif" font-size="18" font-weight="400" fill="#6C757D">Mapbox GL</text>
</svg>
