<svg width="123" height="72" viewBox="0 0 123 72" fill="none" xmlns="http://www.w3.org/2000/svg">
<svg x="49" y="3" width="25" height="25" viewBox="41.5 0 40 40">
<path fill-rule="evenodd" clip-rule="evenodd" d="M62.5295 35.216L62.3891 35.3243C62.2653 37.2541 61.9536 39.9917 61.9536 39.9917H60.7103C60.7103 39.9917 60.3998 37.2386 60.2749 35.3243L60.1357 35.2315C60.1357 35.2315 43.4539 22.8317 57.8656 4.45692C59.5443 2.46644 60.9899 0.443837 61.2862 0.0238487C61.3171 -0.00827507 61.3635 -0.00827507 61.3944 0.0238487C61.6895 0.443837 63.1351 2.46644 64.815 4.45692C79.2267 22.8317 62.5449 35.2315 62.5295 35.216ZM62.2808 33.987V33.956L61.379 13.9477C61.379 13.8858 61.2862 13.8858 61.2862 13.9477L60.3843 33.956V33.987C60.5866 34.313 61.3326 34.9519 61.3326 34.9519C61.3326 34.9519 62.0786 34.313 62.2808 33.987Z" fill="#6C757D"/>
</svg>
<text x="61.5" y="67" text-anchor="middle" font-family="Arial, sans-serif" font-size="18" font-weight="400" fill="#6C757D">Mongo DB</text>
</svg>
