<svg width="123" height="72" viewBox="0 0 123 72" fill="none" xmlns="http://www.w3.org/2000/svg">
<svg x="49" y="3" width="25" height="25" viewBox="41.5 0 40 40">
<path d="M61.4927 3.75C61.0364 3.75 60.5803 3.86191 60.1865 4.08691L47.7988 11.2378C46.9988 11.7003 46.5 12.576 46.5 13.501V26.4746C46.5 27.4121 46.9988 28.2753 47.7988 28.7378L51.0508 30.6128C52.6258 31.3878 53.1874 31.3867 53.8999 31.3867C56.2374 31.3867 57.5742 29.9744 57.5742 27.5244V14.1382C57.5742 13.9382 57.4129 13.7744 57.2129 13.7744H55.6504C55.4379 13.7744 55.2866 13.9382 55.2866 14.1382V27.5122C55.2866 28.6122 54.1505 29.6869 52.313 28.7744L48.9121 26.8115C48.7871 26.749 48.7119 26.6121 48.7119 26.4746V13.5132C48.7119 13.3632 48.7871 13.2366 48.9121 13.1616L61.2998 6.01318C61.4123 5.93818 61.563 5.93818 61.688 6.01318L74.0757 13.1616C74.2007 13.2366 74.2759 13.3635 74.2759 13.501V26.4746C74.2759 26.6121 74.2004 26.749 74.0879 26.8115L61.688 33.9746C61.5755 34.0371 61.4123 34.0371 61.2998 33.9746L58.1113 32.0874C58.0238 32.0249 57.901 32.013 57.8135 32.063C56.926 32.563 56.7635 32.6251 55.9385 32.9126C55.7385 32.9751 55.4258 33.0997 56.0508 33.4497L60.1865 35.9009C60.5865 36.1259 61.0378 36.25 61.4878 36.25C61.9503 36.25 62.3988 36.1259 62.7988 35.9009L75.2012 28.7378C76.0012 28.2753 76.5 27.4121 76.5 26.4746V13.5132C76.5 12.5757 76.0012 11.7125 75.2012 11.25L62.7988 4.08691C62.4051 3.86191 61.9489 3.75 61.4927 3.75ZM64.8252 13.7573C61.2877 13.7573 59.1758 15.2563 59.1758 17.7563C59.1758 20.4688 61.2738 21.2177 64.6738 21.5552C68.7363 21.9552 69.0488 22.5569 69.0488 23.3569C69.0488 24.7319 67.9382 25.3198 65.3257 25.3198C62.0382 25.3198 61.3127 24.4937 61.0752 22.8687C61.0502 22.6937 60.9011 22.5684 60.7261 22.5684H59.1123C58.9123 22.5684 58.7632 22.7324 58.7632 22.9199C58.7632 25.0074 59.9007 27.4927 65.3257 27.4927C69.2507 27.4927 71.5 25.9446 71.5 23.2446C71.5 20.5696 69.6872 19.8558 65.8872 19.3433C62.0247 18.8433 61.6367 18.5807 61.6367 17.6807C61.6367 16.9307 61.9752 15.9448 64.8252 15.9448C67.3627 15.9448 68.3122 16.4931 68.6997 18.2056C68.7372 18.3681 68.8738 18.4937 69.0488 18.4937H70.6626C70.7626 18.4937 70.8488 18.4441 70.9238 18.3691C70.9863 18.3066 71.0242 18.2058 71.0117 18.0933C70.7617 15.1433 68.8002 13.7573 64.8252 13.7573Z" fill="#6C757D"/>
</svg>
<text x="61.5" y="67" text-anchor="middle" font-family="Arial, sans-serif" font-size="18" font-weight="400" fill="#6C757D">NodeJS</text>
</svg>
