<svg width="123" height="72" viewBox="0 0 123 72" fill="none" xmlns="http://www.w3.org/2000/svg">
<svg x="49" y="3" width="25" height="25" viewBox="41.5 0 40 40">
<path fill-rule="evenodd" clip-rule="evenodd" d="M54.1497 32.5C47.1667 32.5 41.5 26.9134 41.5 20.01C41.5 13.1065 47.1667 7.5 54.1497 7.5H68.8524C75.8373 7.5 81.5 13.1065 81.5 20.01C81.5 26.9134 75.8373 32.5 68.8524 32.5H54.1497ZM68.5253 28.0906C73.0495 28.0906 76.7135 24.4792 76.7135 20.01C76.7135 15.5407 73.0495 11.9094 68.5253 11.9094H54.4747C49.9526 11.9094 46.2865 15.5407 46.2865 20.01C46.2865 24.4792 49.9526 28.0906 54.4747 28.0906H68.5253Z" fill="#6C757D"/>
</svg>
<text x="61.5" y="67" text-anchor="middle" font-family="Arial, sans-serif" font-size="18" font-weight="400" fill="#6C757D">Oracle</text>
</svg>
