<svg width="123" height="72" viewBox="0 0 123 72" fill="none" xmlns="http://www.w3.org/2000/svg">
<svg x="49" y="3" width="25" height="25" viewBox="0 0 24 24">
<path d="M23.035 9.601h-7.677a.956.956 0 01-.962-.962V.962a.956.956 0 00-.962-.956H10.56a.956.956 0 00-.962.956V8.64a.956.956 0 01-.962.962H5.762a.956.956 0 01-.961-.962V.962A.956.956 0 003.839 0H.959a.956.956 0 00-.956.962v22.076A.956.956 0 00.965 24h22.07a.956.956 0 00.962-.962V10.58a.956.956 0 00-.962-.98zm-3.86 8.152a1.437 1.437 0 01-1.437 1.443h-1.924a1.437 1.437 0 01-1.436-1.443v-1.917a1.437 1.437 0 011.436-1.443h1.924a1.437 1.437 0 011.437 1.443z" fill="#6C757D"/>
</svg>
<text x="61.5" y="67" text-anchor="middle" font-family="Arial, sans-serif" font-size="18" font-weight="400" fill="#6C757D">RabbitMQ</text>
</svg>
