<svg width="123" height="72" viewBox="0 0 123 72" fill="none" xmlns="http://www.w3.org/2000/svg">
<svg x="49" y="3" width="25" height="25" viewBox="41.5 0 40 40">
<path fill-rule="evenodd" clip-rule="evenodd" d="M45.4062 0H77.5938C79.7511 0 81.5 1.74889 81.5 3.90625V36.0938C81.5 38.2511 79.7511 40 77.5938 40H45.4062C43.2489 40 41.5 38.2511 41.5 36.0938V3.90625C41.5 1.74889 43.2489 0 45.4062 0ZM66.2609 35.741V31.83C66.97 32.4248 67.7403 32.8709 68.5717 33.1683C69.4032 33.4657 70.2427 33.6144 71.0905 33.6144C71.5877 33.6144 72.0217 33.5696 72.3927 33.4799C72.7635 33.3903 73.0733 33.2661 73.3219 33.1072C73.5705 32.9483 73.7559 32.7609 73.8782 32.545C74.0005 32.3291 74.0616 32.0948 74.0616 31.8423C74.0616 31.5 73.9638 31.1945 73.7682 30.9256C73.5725 30.6567 73.3055 30.4082 72.9673 30.1801C72.6291 29.952 72.2276 29.732 71.763 29.5201C71.2984 29.3082 70.797 29.0923 70.2591 28.8723C68.8896 28.302 67.8687 27.6053 67.1962 26.7824C66.5237 25.9595 66.1875 24.9654 66.1875 23.8002C66.1875 22.8877 66.3709 22.1034 66.7377 21.4476C67.1045 20.7916 67.6037 20.2519 68.2355 19.8281C68.8673 19.4045 69.5988 19.0928 70.4302 18.8932C71.2616 18.6936 72.142 18.5938 73.0713 18.5938C73.9841 18.5938 74.7932 18.6488 75.4983 18.7588C76.2034 18.8687 76.8534 19.0378 77.4484 19.2659V22.9203C77.155 22.7166 76.8351 22.5373 76.4887 22.3825C76.1422 22.2277 75.7856 22.0994 75.4188 21.9975C75.052 21.8957 74.6872 21.8203 74.3245 21.7714C73.9617 21.7226 73.6173 21.6981 73.2913 21.6981C72.843 21.6981 72.4355 21.7409 72.0686 21.8264C71.7018 21.912 71.3921 22.0322 71.1394 22.187C70.8867 22.3418 70.6911 22.5271 70.5525 22.743C70.4139 22.959 70.3446 23.2014 70.3446 23.4702C70.3446 23.7636 70.4221 24.0263 70.577 24.2586C70.7318 24.4908 70.9519 24.7108 71.2372 24.9186C71.5225 25.1263 71.8689 25.33 72.2765 25.5297C72.6841 25.7293 73.1446 25.935 73.6581 26.1469C74.3591 26.4402 74.9888 26.7518 75.5472 27.0818C76.1055 27.4118 76.5845 27.7846 76.9838 28.2002C77.3833 28.6157 77.6889 29.0903 77.9009 29.624C78.1128 30.1577 78.2188 30.7789 78.2188 31.4878C78.2188 32.4655 78.0333 33.2864 77.6624 33.9505C77.2916 34.6145 76.7882 35.1523 76.1524 35.5638C75.5166 35.9752 74.7769 36.2706 73.9332 36.4498C73.0895 36.6291 72.1991 36.7188 71.2616 36.7188C70.2998 36.7188 69.3848 36.6373 68.5167 36.4743C67.6486 36.3113 66.8966 36.067 66.2609 35.741ZM64.7031 22.1939H59.6859V36.4844H55.7114V22.1939H50.7188V18.9844H64.7031V22.1939Z" fill="#6C757D"/>
</svg>
<text x="61.5" y="67" text-anchor="middle" font-family="Arial, sans-serif" font-size="18" font-weight="400" fill="#6C757D">Typescript</text>
</svg>
